<?xml version="1.0" encoding="UTF-8" standalone="no"?>
<!-- Created with Inkscape (http://www.inkscape.org/) -->

<svg
   width="1024"
   height="1024"
   viewBox="0 0 270.93334 270.93334"
   version="1.1"
   id="svg1"
   inkscape:version="1.4.2 (ebf0e940d0, 2025-05-08)"
   sodipodi:docname="logo.svg"
   xmlns:inkscape="http://www.inkscape.org/namespaces/inkscape"
   xmlns:sodipodi="http://sodipodi.sourceforge.net/DTD/sodipodi-0.dtd"
   xmlns:xlink="http://www.w3.org/1999/xlink"
   xmlns="http://www.w3.org/2000/svg"
   xmlns:svg="http://www.w3.org/2000/svg">
  <sodipodi:namedview
     id="namedview1"
     pagecolor="#ffffff"
     bordercolor="#000000"
     borderopacity="0.25"
     inkscape:showpageshadow="2"
     inkscape:pageopacity="0.0"
     inkscape:pagecheckerboard="false"
     inkscape:deskcolor="#d1d1d1"
     inkscape:document-units="mm"
     inkscape:antialias-rendering="true"
     inkscape:clip-to-page="false"
     inkscape:zoom="0.49953305"
     inkscape:cx="56.052347"
     inkscape:cy="339.31689"
     inkscape:window-width="1920"
     inkscape:window-height="1011"
     inkscape:window-x="0"
     inkscape:window-y="0"
     inkscape:window-maximized="1"
     inkscape:current-layer="layer1" />
  <defs
     id="defs1">
    <linearGradient
       id="linearGradient1"
       inkscape:collect="always">
      <stop
         style="stop-color:#141739;stop-opacity:1;"
         offset="0"
         id="stop1" />
      <stop
         style="stop-color:#272d6f;stop-opacity:1;"
         offset="1"
         id="stop2" />
    </linearGradient>
    <radialGradient
       inkscape:collect="always"
       xlink:href="#linearGradient1"
       id="radialGradient2"
       cx="174.09584"
       cy="197.90834"
       fx="174.09584"
       fy="197.90834"
       r="125.67709"
       gradientUnits="userSpaceOnUse" />
  </defs>
  <g
     inkscape:label="Layer 1"
     inkscape:groupmode="layer"
     id="layer1"
     transform="translate(-38.629172,-62.441667)">
    <circle
       style="fill:url(#radialGradient2);fill-opacity:1;stroke-width:0.337532"
       id="path1"
       cx="174.09584"
       cy="197.90834"
       r="125.67709" />
    <path
       id="path30"
       style="fill:#4ab8d1;stroke-width:0.471641;fill-opacity:1"
       d="M 173.99507 98.411564 L 167.09523 104.90264 C 166.22451 105.72195 165.32874 106.51679 164.41219 107.28854 A 12.062104 12.062104 0 0 1 169.39638 114.63848 C 170.68573 113.57979 171.94048 112.48098 173.15274 111.34049 L 173.99507 110.54881 L 174.83636 111.34049 C 176.10237 112.5315 177.41518 113.67714 178.7648 114.77904 A 12.062104 12.062104 0 0 1 183.66838 107.36502 C 182.72003 106.56942 181.79392 105.74903 180.89439 104.90264 L 173.99507 98.411564 z M 157.62191 107.97946 A 9.2785417 9.2785417 0 0 0 148.34341 117.25796 A 9.2785417 9.2785417 0 0 0 156.0649 126.40469 C 157.13933 122.34318 158.49005 118.125 160.1463 113.66696 C 155.55301 126.0305 153.30968 136.5509 152.79223 146.99361 L 115.18005 166.08082 L 101.79586 142.65434 A 9.2785417 9.2785417 0 0 0 105.33673 135.3628 A 9.2785417 9.2785417 0 0 0 96.058225 126.08429 A 9.2785417 9.2785417 0 0 0 86.779721 135.3628 A 9.2785417 9.2785417 0 0 0 96.058225 144.6413 A 9.2785417 9.2785417 0 0 0 98.519573 144.30902 L 111.90739 167.7417 L 104.11355 171.6965 A 9.2785417 9.2785417 0 0 0 96.035487 166.98257 A 9.2785417 9.2785417 0 0 0 86.756984 176.26108 A 9.2785417 9.2785417 0 0 0 96.035487 185.53958 A 9.2785417 9.2785417 0 0 0 105.31399 176.26108 A 9.2785417 9.2785417 0 0 0 105.30055 175.75723 L 113.97238 171.35647 L 146.42363 228.15558 A 7.2569975 7.2569975 0 0 0 142.93857 231.66028 L 117.91994 222.99466 A 9.2785417 9.2785417 0 0 0 108.66934 214.43601 A 9.2785417 9.2785417 0 0 0 99.390838 223.71451 A 9.2785417 9.2785417 0 0 0 108.66934 232.99301 A 9.2785417 9.2785417 0 0 0 117.51945 226.50142 L 142.27142 235.07506 A 7.2569975 7.2569975 0 0 0 145.44281 240.72226 L 137.93112 255.5627 A 9.2785417 9.2785417 0 0 0 136.5741 255.46296 A 9.2785417 9.2785417 0 0 0 127.29559 264.74146 A 9.2785417 9.2785417 0 0 0 136.5741 274.01997 A 9.2785417 9.2785417 0 0 0 145.7725 265.95689 L 159.76545 263.12606 A 7.2569975 7.2569975 0 0 0 166.72161 268.31592 A 7.2569975 7.2569975 0 0 0 172.68145 265.19932 A 7.2569975 7.2569975 0 0 0 173.13259 264.45828 A 7.2569975 7.2569975 0 0 1 172.68145 265.19932 C 173.06592 265.27152 173.4483 265.35849 173.82815 265.4608 L 188.94868 269.52515 C 188.20807 273.20888 187.10219 276.97131 185.69978 280.94668 C 182.11035 283.41328 178.40879 285.73538 174.60589 287.91473 L 173.99507 288.26458 L 173.38322 287.91473 C 164.15889 282.62836 155.53153 276.50039 147.65301 269.51172 A 12.062104 12.062104 0 0 1 141.40688 275.7935 C 149.83833 283.32391 159.08616 289.91803 168.98814 295.59281 L 173.99507 298.4624 L 179.00148 295.59281 C 188.9297 289.90275 198.19997 283.28783 206.64941 275.73252 A 12.062104 12.062104 0 0 1 200.48389 269.38201 C 196.7861 272.67113 192.92279 275.76995 188.9094 278.68066 C 188.78377 278.88961 188.60352 279.1082 188.47481 279.31783 C 196.85267 265.67062 198.73309 253.4293 198.40288 247.14822 C 197.90791 237.68947 195.30761 228.3536 191.79657 219.4047 A 30.371876 25.802657 0 0 1 178.98856 223.90261 C 182.25042 230.12592 185.19584 236.49091 187.30899 243.21565 L 159.53704 235.74943 C 158.5897 235.49479 157.6644 235.16443 156.77648 234.75828 A 7.2569975 7.2569975 0 0 1 156.73876 235.28228 A 7.2569975 7.2569975 0 0 0 156.77648 234.71901 A 7.2569975 7.2569975 0 0 0 150.27145 227.50136 L 117.24505 169.69559 L 152.67389 151.71684 C 152.66889 156.44603 152.99709 161.21355 153.60148 166.18314 C 154.08507 170.15975 154.90334 173.99739 155.97756 177.72869 A 30.371876 25.802657 0 0 1 169.23515 172.9667 C 166.57757 166.91218 164.09234 160.28424 162.21026 153.24904 L 191.24673 161.0527 C 192.17599 161.30331 193.07224 161.63686 193.93287 162.04231 A 7.2569975 7.2569975 0 0 0 200.94795 168.32874 L 208.76401 255.91255 A 9.2785417 9.2785417 0 0 0 202.33908 264.74146 A 9.2785417 9.2785417 0 0 0 211.61758 274.01997 A 9.2785417 9.2785417 0 0 0 220.89608 264.74146 A 9.2785417 9.2785417 0 0 0 212.40668 255.49655 L 204.94098 171.83602 L 232.32588 217.85802 A 9.2785417 9.2785417 0 0 0 230.24383 223.71451 A 9.2785417 9.2785417 0 0 0 239.52234 232.99301 A 9.2785417 9.2785417 0 0 0 248.80084 223.71451 A 9.2785417 9.2785417 0 0 0 239.52234 214.43601 A 9.2785417 9.2785417 0 0 0 235.18875 215.51036 L 205.99725 166.45134 A 7.2569975 7.2569975 0 0 0 207.46745 164.59977 L 242.89681 175.66215 A 9.2785417 9.2785417 0 0 0 242.87769 176.26108 A 9.2785417 9.2785417 0 0 0 252.15619 185.53958 A 9.2785417 9.2785417 0 0 0 261.43469 176.26108 A 9.2785417 9.2785417 0 0 0 252.15619 166.98257 A 9.2785417 9.2785417 0 0 0 243.75567 172.32178 L 208.37902 161.27594 A 7.2569975 7.2569975 0 0 0 208.38212 161.07389 A 7.2569975 7.2569975 0 0 0 208.18781 159.40629 L 245.80309 142.14636 A 9.2785417 9.2785417 0 0 0 252.13345 144.6413 A 9.2785417 9.2785417 0 0 0 261.41196 135.3628 A 9.2785417 9.2785417 0 0 0 252.13345 126.08429 A 9.2785417 9.2785417 0 0 0 242.85495 135.3628 A 9.2785417 9.2785417 0 0 0 243.73448 139.30571 L 206.62047 156.33516 A 7.2569975 7.2569975 0 0 0 201.1252 153.81697 L 201.12468 153.81697 A 7.2569975 7.2569975 0 0 0 200.35522 153.85779 L 188.75438 140.56351 A 7.2569975 7.2569975 0 0 0 190.10571 136.3462 A 7.2569975 7.2569975 0 0 0 187.41596 130.70675 L 189.12748 126.42381 A 9.2785417 9.2785417 0 0 0 190.56977 126.53646 A 9.2785417 9.2785417 0 0 0 199.84827 117.25796 A 9.2785417 9.2785417 0 0 0 190.56977 107.97946 A 9.2785417 9.2785417 0 0 0 181.29127 117.25796 A 9.2785417 9.2785417 0 0 0 186.31266 125.5019 L 184.77529 129.34973 A 7.2569975 7.2569975 0 0 0 182.84879 129.08928 A 7.2569975 7.2569975 0 0 0 176.85071 132.26118 C 175.68167 132.19718 174.52062 132.02275 173.38167 131.71599 L 158.76447 127.78652 C 158.76805 127.34606 158.77497 126.90494 158.78566 126.46308 A 9.2785417 9.2785417 0 0 0 166.90041 117.25796 A 9.2785417 9.2785417 0 0 0 157.62191 107.97946 z M 145.71101 119.16017 C 138.72137 122.5143 131.36392 125.03837 123.81054 126.77159 C 118.12345 128.07627 112.33974 128.93118 106.52322 129.36471 A 12.062104 12.062104 0 0 1 108.12054 135.3628 A 12.062104 12.062104 0 0 1 107.79963 138.1249 C 113.85049 137.64746 119.86727 136.74633 125.78561 135.38864 C 133.99728 133.5041 141.98658 130.74578 149.58157 127.09508 C 149.79559 126.99226 150.00942 126.88828 150.22288 126.78399 A 12.062104 12.062104 0 0 1 145.71101 119.16017 z M 202.46568 119.24957 A 12.062104 12.062104 0 0 1 197.88974 126.84497 C 198.06193 126.92897 198.23444 127.01213 198.40702 127.09508 C 206.002 130.74579 213.99261 133.5041 222.20453 135.38864 C 228.18971 136.76175 234.27502 137.66778 240.39515 138.14092 A 12.062104 12.062104 0 0 1 240.07114 135.3628 A 12.062104 12.062104 0 0 1 241.65967 129.37867 C 235.77781 128.94978 229.92916 128.09077 224.17857 126.77159 C 216.69252 125.05381 209.39952 122.55917 202.46568 119.24957 z M 158.81408 131.4235 L 172.6613 135.14472 C 173.67856 135.41871 174.65519 135.79761 175.59135 136.26093 A 7.2569975 7.2569975 0 0 0 175.59135 136.3462 A 7.2569975 7.2569975 0 0 0 182.84879 143.60312 A 7.2569975 7.2569975 0 0 0 186.58138 142.56959 L 197.33111 154.8877 A 7.2569975 7.2569975 0 0 0 194.49459 158.1242 C 193.64754 158.0171 192.80629 157.84993 191.97898 157.62759 L 161.24391 149.36659 C 159.92025 143.59735 159.03439 137.58934 158.81408 131.4235 z M 89.427105 145.43867 C 89.346885 147.1892 89.29783 148.94115 89.276727 150.69261 C 89.225087 154.96586 89.335367 159.24233 89.584718 163.50888 C 89.632748 164.32935 89.68575 165.14934 89.744398 165.9692 A 12.062104 12.062104 0 0 1 96.035487 164.19876 A 12.062104 12.062104 0 0 1 98.501486 164.45353 C 98.469596 163.97361 98.439163 163.49346 98.411053 163.01331 C 98.173068 158.94757 98.058147 154.86988 98.107195 150.79648 C 98.121535 149.60906 98.150108 148.42157 98.192978 147.23442 A 12.062104 12.062104 0 0 1 96.058225 147.42459 A 12.062104 12.062104 0 0 1 89.427105 145.43867 z M 258.5682 145.56476 A 12.062104 12.062104 0 0 1 252.13294 147.42459 A 12.062104 12.062104 0 0 1 249.79613 147.19618 C 249.83983 148.39612 249.86823 149.59625 249.88243 150.79648 C 249.93173 154.86939 249.81583 158.94707 249.57805 163.01331 C 249.54925 163.50836 249.51814 164.00316 249.48504 164.49797 A 12.062104 12.062104 0 0 1 252.15567 164.19876 A 12.062104 12.062104 0 0 1 258.25246 165.85293 C 258.30776 165.0716 258.35813 164.28974 258.40387 163.50785 C 258.65391 159.2418 258.76363 154.96532 258.71238 150.69158 C 258.69168 148.98264 258.64488 147.27295 258.5682 145.56476 z M 173.41836 176.02026 A 27.808188 22.496511 0 0 0 145.60972 198.51657 A 27.808188 22.496511 0 0 0 154.90114 215.30004 L 151.90236 225.89371 L 164.53053 219.83258 A 27.808188 22.496511 0 0 0 173.41836 221.01287 A 27.808188 22.496511 0 0 0 201.227 198.51657 A 27.808188 22.496511 0 0 0 173.41836 176.02026 z M 246.53121 186.93123 C 245.49729 192.14908 244.22035 197.31962 242.69062 202.414 C 241.75374 205.53306 240.72567 208.61329 239.60502 211.6522 A 12.062104 12.062104 0 0 1 247.81434 214.95432 C 249.03392 211.66341 250.1503 208.32577 251.16555 204.94563 C 252.85029 199.33644 254.24663 193.6399 255.36116 187.88982 A 12.062104 12.062104 0 0 1 252.15567 188.32287 A 12.062104 12.062104 0 0 1 246.53121 186.93123 z M 101.47702 187.02579 A 12.062104 12.062104 0 0 1 96.035487 188.32287 A 12.062104 12.062104 0 0 1 92.617091 187.82833 C 93.733608 193.59917 95.133617 199.31656 96.824586 204.94563 C 97.854539 208.37469 98.988761 211.75978 100.22903 215.09695 A 12.062104 12.062104 0 0 1 108.38615 211.6553 C 107.26514 208.61543 106.23714 205.53412 105.30004 202.414 C 103.77916 197.35039 102.50771 192.21171 101.47702 187.02579 z M 160.63309 194.57107 A 4.4187325 4.4187325 0 0 1 165.05195 198.98992 A 4.4187325 4.4187325 0 0 1 160.63309 203.40877 A 4.4187325 4.4187325 0 0 1 156.21424 198.98992 A 4.4187325 4.4187325 0 0 1 160.63309 194.57107 z M 173.41836 194.57107 A 4.4187325 4.4187325 0 0 1 177.83721 198.98992 A 4.4187325 4.4187325 0 0 1 173.41836 203.40877 A 4.4187325 4.4187325 0 0 1 168.99951 198.98992 A 4.4187325 4.4187325 0 0 1 173.41836 194.57107 z M 186.20363 194.57107 A 4.4187325 4.4187325 0 0 1 190.62248 198.98992 A 4.4187325 4.4187325 0 0 1 186.20363 203.40877 A 4.4187325 4.4187325 0 0 1 181.78478 198.98992 A 4.4187325 4.4187325 0 0 1 186.20363 194.57107 z M 230.49446 231.71402 C 226.64541 238.74152 222.20692 245.45482 217.15884 251.79497 C 216.71965 252.34665 216.27654 252.89481 215.82973 253.43879 A 12.062104 12.062104 0 0 1 222.41124 259.35626 C 222.97278 258.6763 223.52844 257.99083 224.07883 257.29954 C 229.49999 250.4908 234.26161 243.27706 238.38235 235.72256 A 12.062104 12.062104 0 0 1 230.49446 231.71402 z M 117.57112 231.85355 A 12.062104 12.062104 0 0 1 109.61709 235.7391 C 113.7356 243.28752 118.49394 250.49582 123.91079 257.29954 C 124.50265 258.04288 125.10025 258.78 125.70499 259.51026 A 12.062104 12.062104 0 0 1 132.20744 253.49719 C 131.74444 252.93413 131.28567 252.36729 130.83078 251.796 C 125.81622 245.49745 121.40244 238.83057 117.57112 231.85355 z M 156.70827 235.70603 A 7.2569975 7.2569975 0 0 1 156.59665 236.25225 A 7.2569975 7.2569975 0 0 0 156.70827 235.70603 z M 156.51345 236.65377 A 7.2569975 7.2569975 0 0 1 156.26127 237.37518 A 7.2569975 7.2569975 0 0 0 156.51345 236.65377 z M 156.19461 237.56534 A 7.2569975 7.2569975 0 0 1 155.75484 238.43144 C 156.68067 238.50575 157.6015 238.66084 158.50816 238.90531 L 188.38024 246.93687 C 188.38624 246.96207 191.08136 255.40373 189.51712 266.24731 L 174.51028 262.21242 C 174.30929 262.15832 174.11006 262.09983 173.91239 262.03724 A 7.2569975 7.2569975 0 0 1 173.82815 262.46512 A 7.2569975 7.2569975 0 0 0 173.97853 261.059 A 7.2569975 7.2569975 0 0 0 166.72161 253.80208 A 7.2569975 7.2569975 0 0 0 159.50758 260.27197 L 145.70016 263.0656 A 9.2785417 9.2785417 0 0 0 140.85911 256.51147 L 148.27158 241.86792 A 7.2569975 7.2569975 0 0 0 149.51956 241.97593 A 7.2569975 7.2569975 0 0 0 155.75484 238.43144 A 7.2569975 7.2569975 0 0 0 156.19461 237.56534 z M 173.75426 262.8408 A 7.2569975 7.2569975 0 0 1 173.58941 263.36635 A 7.2569975 7.2569975 0 0 0 173.75426 262.8408 z M 173.49381 263.66298 A 7.2569975 7.2569975 0 0 1 173.24628 264.21023 A 7.2569975 7.2569975 0 0 0 173.49381 263.66298 z " />
  </g>
</svg>
