<?xml version="1.0" encoding="UTF-8" standalone="no"?>
<!-- Created with Inkscape (http://www.inkscape.org/) -->

<svg
   width="1024"
   height="1024"
   viewBox="0 0 270.93334 270.93334"
   version="1.1"
   id="svg1"
   inkscape:version="1.4.3 (0d15f75042, 2025-12-25)"
   sodipodi:docname="logo.svg"
   xmlns:inkscape="http://www.inkscape.org/namespaces/inkscape"
   xmlns:sodipodi="http://sodipodi.sourceforge.net/DTD/sodipodi-0.dtd"
   xmlns:xlink="http://www.w3.org/1999/xlink"
   xmlns="http://www.w3.org/2000/svg"
   xmlns:svg="http://www.w3.org/2000/svg">
  <sodipodi:namedview
     id="namedview1"
     pagecolor="#ffffff"
     bordercolor="#000000"
     borderopacity="0.25"
     inkscape:showpageshadow="2"
     inkscape:pageopacity="0.0"
     inkscape:pagecheckerboard="false"
     inkscape:deskcolor="#d1d1d1"
     inkscape:document-units="mm"
     inkscape:antialias-rendering="true"
     inkscape:clip-to-page="false"
     inkscape:zoom="0.49953305"
     inkscape:cx="752.70295"
     inkscape:cy="339.31689"
     inkscape:window-width="1920"
     inkscape:window-height="1011"
     inkscape:window-x="0"
     inkscape:window-y="0"
     inkscape:window-maximized="1"
     inkscape:current-layer="layer1" />
  <defs
     id="defs1">
    <linearGradient
       id="linearGradient1"
       inkscape:collect="always">
      <stop
         style="stop-color:#141739;stop-opacity:1;"
         offset="0"
         id="stop1" />
      <stop
         style="stop-color:#272d6f;stop-opacity:1;"
         offset="1"
         id="stop2" />
    </linearGradient>
    <radialGradient
       inkscape:collect="always"
       xlink:href="#linearGradient1"
       id="radialGradient2"
       cx="174.09584"
       cy="197.90834"
       fx="174.09584"
       fy="197.90834"
       r="125.67709"
       gradientUnits="userSpaceOnUse" />
    <filter
       style="color-interpolation-filters:sRGB;"
       inkscape:label="Blur"
       id="filter12"
       x="-0.02747917"
       y="-0.023993896"
       width="1.0549583"
       height="1.0479878">
      <feGaussianBlur
         stdDeviation="2 2"
         result="blur"
         id="feGaussianBlur12" />
    </filter>
  </defs>
  <g
     inkscape:label="Layer 1"
     inkscape:groupmode="layer"
     id="layer1"
     transform="translate(-38.629172,-62.441667)">
    <g
       id="g1"
       transform="matrix(1.0778946,0,0,1.0778946,-13.561128,-15.415998)">
      <circle
         style="fill:url(#radialGradient2);fill-opacity:1;stroke-width:0.337532"
         id="path1"
         cx="174.09584"
         cy="197.90834"
         r="125.67709" />
      <path
         id="path30"
         style="display:inline;fill:#4ab8d1;fill-opacity:1;stroke-width:0.471641;filter:url(#filter12)"
         d="m 173.99507,98.411564 -6.89984,6.491076 c -0.87072,0.81931 -1.76649,1.61415 -2.68304,2.3859 a 12.062104,12.062104 0 0 1 4.98419,7.34994 c 1.28935,-1.05869 2.5441,-2.1575 3.75636,-3.29799 l 0.84233,-0.79168 0.84129,0.79168 c 1.26601,1.19101 2.57882,2.33665 3.92844,3.43855 a 12.062104,12.062104 0 0 1 4.90358,-7.41402 c -0.94835,-0.7956 -1.87446,-1.61599 -2.77399,-2.46238 z m -16.37316,9.567896 a 9.2785417,9.2785417 0 0 0 -9.2785,9.2785 9.2785417,9.2785417 0 0 0 7.72149,9.14673 c 1.07443,-4.06151 2.42515,-8.27969 4.0814,-12.73773 -4.59329,12.36354 -6.83662,22.88394 -7.35407,33.32665 l -37.61218,19.08721 -13.38419,-23.42648 a 9.2785417,9.2785417 0 0 0 3.54087,-7.29154 9.2785417,9.2785417 0 0 0 -9.278505,-9.27851 9.2785417,9.2785417 0 0 0 -9.278504,9.27851 9.2785417,9.2785417 0 0 0 9.278504,9.2785 9.2785417,9.2785417 0 0 0 2.461348,-0.33228 l 13.387817,23.43268 -7.79384,3.9548 a 9.2785417,9.2785417 0 0 0 -8.078063,-4.71393 9.2785417,9.2785417 0 0 0 -9.278503,9.27851 9.2785417,9.2785417 0 0 0 9.278503,9.2785 9.2785417,9.2785417 0 0 0 9.278503,-9.2785 9.2785417,9.2785417 0 0 0 -0.0134,-0.50385 l 8.67183,-4.40076 32.45125,56.79911 a 7.2569975,7.2569975 0 0 0 -3.48506,3.5047 l -25.01863,-8.66562 a 9.2785417,9.2785417 0 0 0 -9.2506,-8.55865 9.2785417,9.2785417 0 0 0 -9.278502,9.2785 9.2785417,9.2785417 0 0 0 9.278502,9.2785 9.2785417,9.2785417 0 0 0 8.85011,-6.49159 l 24.75197,8.57364 a 7.2569975,7.2569975 0 0 0 3.17139,5.6472 l -7.51169,14.84044 a 9.2785417,9.2785417 0 0 0 -1.35702,-0.0997 9.2785417,9.2785417 0 0 0 -9.27851,9.2785 9.2785417,9.2785417 0 0 0 9.27851,9.27851 9.2785417,9.2785417 0 0 0 9.1984,-8.06308 l 13.99295,-2.83083 a 7.2569975,7.2569975 0 0 0 6.95616,5.18986 7.2569975,7.2569975 0 0 0 5.95984,-3.1166 7.2569975,7.2569975 0 0 0 0.45114,-0.74104 7.2569975,7.2569975 0 0 1 -0.45114,0.74104 c 0.38447,0.0722 0.76685,0.15917 1.1467,0.26148 l 15.12053,4.06435 c -0.74061,3.68373 -1.84649,7.44616 -3.2489,11.42153 -3.58943,2.4666 -7.29099,4.7887 -11.09389,6.96805 l -0.61082,0.34985 -0.61185,-0.34985 c -9.22433,-5.28637 -17.85169,-11.41434 -25.73021,-18.40301 a 12.062104,12.062104 0 0 1 -6.24613,6.28178 c 8.43145,7.53041 17.67928,14.12453 27.58126,19.79931 l 5.00693,2.86959 5.00641,-2.86959 c 9.92822,-5.69006 19.19849,-12.30498 27.64793,-19.86029 a 12.062104,12.062104 0 0 1 -6.16552,-6.35051 c -3.69779,3.28912 -7.5611,6.38794 -11.57449,9.29865 -0.12563,0.20895 -0.30588,0.42754 -0.43459,0.63717 8.37786,-13.64721 10.25828,-25.88853 9.92807,-32.16961 -0.49497,-9.45875 -3.09527,-18.79462 -6.60631,-27.74352 a 30.371876,25.802657 0 0 1 -12.80801,4.49791 c 3.26186,6.22331 6.20728,12.5883 8.32043,19.31304 l -27.77195,-7.46622 c -0.94734,-0.25464 -1.87264,-0.585 -2.76056,-0.99115 a 7.2569975,7.2569975 0 0 1 -0.0377,0.524 7.2569975,7.2569975 0 0 0 0.0377,-0.56327 7.2569975,7.2569975 0 0 0 -6.50503,-7.21765 l -33.0264,-57.80577 35.42884,-17.97875 c -0.005,4.72919 0.3232,9.49671 0.92759,14.4663 0.48359,3.97661 1.30186,7.81425 2.37608,11.54555 a 30.371876,25.802657 0 0 1 13.25759,-4.76199 c -2.65758,-6.05452 -5.14281,-12.68246 -7.02489,-19.71766 l 29.03647,7.80366 c 0.92926,0.25061 1.82551,0.58416 2.68614,0.98961 a 7.2569975,7.2569975 0 0 0 7.01508,6.28643 l 7.81606,87.58381 a 9.2785417,9.2785417 0 0 0 -6.42493,8.82891 9.2785417,9.2785417 0 0 0 9.2785,9.27851 9.2785417,9.2785417 0 0 0 9.2785,-9.27851 9.2785417,9.2785417 0 0 0 -8.4894,-9.24491 l -7.4657,-83.66053 27.3849,46.022 a 9.2785417,9.2785417 0 0 0 -2.08205,5.85649 9.2785417,9.2785417 0 0 0 9.27851,9.2785 9.2785417,9.2785417 0 0 0 9.2785,-9.2785 9.2785417,9.2785417 0 0 0 -9.2785,-9.2785 9.2785417,9.2785417 0 0 0 -4.33359,1.07435 l -29.1915,-49.05902 a 7.2569975,7.2569975 0 0 0 1.4702,-1.85157 l 35.42936,11.06238 a 9.2785417,9.2785417 0 0 0 -0.0191,0.59893 9.2785417,9.2785417 0 0 0 9.2785,9.2785 9.2785417,9.2785417 0 0 0 9.2785,-9.2785 9.2785417,9.2785417 0 0 0 -9.2785,-9.27851 9.2785417,9.2785417 0 0 0 -8.40052,5.33921 l -35.37665,-11.04584 a 7.2569975,7.2569975 0 0 0 0.003,-0.20205 7.2569975,7.2569975 0 0 0 -0.19431,-1.6676 l 37.61528,-17.25993 a 9.2785417,9.2785417 0 0 0 6.33036,2.49494 9.2785417,9.2785417 0 0 0 9.27851,-9.2785 9.2785417,9.2785417 0 0 0 -9.27851,-9.27851 9.2785417,9.2785417 0 0 0 -9.2785,9.27851 9.2785417,9.2785417 0 0 0 0.87953,3.94291 l -37.11401,17.02945 a 7.2569975,7.2569975 0 0 0 -5.49527,-2.51819 h -5.2e-4 a 7.2569975,7.2569975 0 0 0 -0.76946,0.0408 l -11.60084,-13.29428 a 7.2569975,7.2569975 0 0 0 1.35133,-4.21731 7.2569975,7.2569975 0 0 0 -2.68975,-5.63945 l 1.71152,-4.28294 a 9.2785417,9.2785417 0 0 0 1.44229,0.11265 9.2785417,9.2785417 0 0 0 9.2785,-9.2785 9.2785417,9.2785417 0 0 0 -9.2785,-9.2785 9.2785417,9.2785417 0 0 0 -9.2785,9.2785 9.2785417,9.2785417 0 0 0 5.02139,8.24394 l -1.53737,3.84783 a 7.2569975,7.2569975 0 0 0 -1.9265,-0.26045 7.2569975,7.2569975 0 0 0 -5.99808,3.1719 c -1.16904,-0.064 -2.33009,-0.23843 -3.46904,-0.54519 l -14.6172,-3.92947 c 0.004,-0.44046 0.0105,-0.88158 0.0212,-1.32344 a 9.2785417,9.2785417 0 0 0 8.11475,-9.20512 9.2785417,9.2785417 0 0 0 -9.2785,-9.2785 z m -11.9109,11.18071 c -6.98964,3.35413 -14.34709,5.8782 -21.90047,7.61142 -5.68709,1.30468 -11.4708,2.15959 -17.28732,2.59312 a 12.062104,12.062104 0 0 1 1.59732,5.99809 12.062104,12.062104 0 0 1 -0.32091,2.7621 c 6.05086,-0.47744 12.06764,-1.37857 17.98598,-2.73626 8.21167,-1.88454 16.20097,-4.64286 23.79596,-8.29356 0.21402,-0.10282 0.42785,-0.2068 0.64131,-0.31109 a 12.062104,12.062104 0 0 1 -4.51187,-7.62382 z m 56.75467,0.0894 a 12.062104,12.062104 0 0 1 -4.57594,7.5954 c 0.17219,0.084 0.3447,0.16716 0.51728,0.25011 7.59498,3.65071 15.58559,6.40902 23.79751,8.29356 5.98518,1.37311 12.07049,2.27914 18.19062,2.75228 a 12.062104,12.062104 0 0 1 -0.32401,-2.77812 12.062104,12.062104 0 0 1 1.58853,-5.98413 c -5.88186,-0.42889 -11.73051,-1.2879 -17.4811,-2.60708 -7.48605,-1.71778 -14.77905,-4.21242 -21.71289,-7.52202 z m -43.6516,12.17393 13.84722,3.72122 c 1.01726,0.27399 1.99389,0.65289 2.93005,1.11621 a 7.2569975,7.2569975 0 0 0 0,0.0853 7.2569975,7.2569975 0 0 0 7.25744,7.25692 7.2569975,7.2569975 0 0 0 3.73259,-1.03353 l 10.74973,12.31811 a 7.2569975,7.2569975 0 0 0 -2.83652,3.2365 c -0.84705,-0.1071 -1.6883,-0.27427 -2.51561,-0.49661 l -30.73507,-8.261 c -1.32366,-5.76924 -2.20952,-11.77725 -2.42983,-17.94309 z m -69.386975,14.01517 c -0.08022,1.75053 -0.129275,3.50248 -0.150378,5.25394 -0.05164,4.27325 0.05864,8.54972 0.307991,12.81627 0.04803,0.82047 0.101032,1.64046 0.15968,2.46032 a 12.062104,12.062104 0 0 1 6.291089,-1.77044 12.062104,12.062104 0 0 1 2.465999,0.25477 c -0.03189,-0.47992 -0.06232,-0.96007 -0.09043,-1.44022 -0.237985,-4.06574 -0.352906,-8.14343 -0.303858,-12.21683 0.01434,-1.18742 0.04291,-2.37491 0.08578,-3.56206 a 12.062104,12.062104 0 0 1 -2.134753,0.19017 12.062104,12.062104 0 0 1 -6.63112,-1.98592 z m 169.141095,0.12609 a 12.062104,12.062104 0 0 1 -6.43526,1.85983 12.062104,12.062104 0 0 1 -2.33681,-0.22841 c 0.0437,1.19994 0.0721,2.40007 0.0863,3.6003 0.0493,4.07291 -0.0666,8.15059 -0.30438,12.21683 -0.0288,0.49505 -0.0599,0.98985 -0.093,1.48466 a 12.062104,12.062104 0 0 1 2.67063,-0.29921 12.062104,12.062104 0 0 1 6.09679,1.65417 c 0.0553,-0.78133 0.10567,-1.56319 0.15141,-2.34508 0.25004,-4.26605 0.35976,-8.54253 0.30851,-12.81627 -0.0207,-1.70894 -0.0675,-3.41863 -0.14418,-5.12682 z m -85.14984,30.4555 a 27.808188,22.496511 0 0 0 -27.80864,22.49631 27.808188,22.496511 0 0 0 9.29142,16.78347 l -2.99878,10.59367 12.62817,-6.06113 a 27.808188,22.496511 0 0 0 8.88783,1.18029 27.808188,22.496511 0 0 0 27.80864,-22.4963 27.808188,22.496511 0 0 0 -27.80864,-22.49631 z m 73.11285,10.91097 c -1.03392,5.21785 -2.31086,10.38839 -3.84059,15.48277 -0.93688,3.11906 -1.96495,6.19929 -3.0856,9.2382 a 12.062104,12.062104 0 0 1 8.20932,3.30212 c 1.21958,-3.29091 2.33596,-6.62855 3.35121,-10.00869 1.68474,-5.60919 3.08108,-11.30573 4.19561,-17.05581 a 12.062104,12.062104 0 0 1 -3.20549,0.43305 12.062104,12.062104 0 0 1 -5.62446,-1.39164 z m -145.05419,0.0946 a 12.062104,12.062104 0 0 1 -5.441533,1.29708 12.062104,12.062104 0 0 1 -3.418396,-0.49454 c 1.116517,5.77084 2.516526,11.48823 4.207495,17.1173 1.029953,3.42906 2.164175,6.81415 3.404444,10.15132 a 12.062104,12.062104 0 0 1 8.15712,-3.44165 c -1.12101,-3.03987 -2.14901,-6.12118 -3.08611,-9.2413 -1.52088,-5.06361 -2.79233,-10.20229 -3.82302,-15.38821 z m 59.15607,7.54528 a 4.4187325,4.4187325 0 0 1 4.41886,4.41885 4.4187325,4.4187325 0 0 1 -4.41886,4.41885 4.4187325,4.4187325 0 0 1 -4.41885,-4.41885 4.4187325,4.4187325 0 0 1 4.41885,-4.41885 z m 12.78527,0 a 4.4187325,4.4187325 0 0 1 4.41885,4.41885 4.4187325,4.4187325 0 0 1 -4.41885,4.41885 4.4187325,4.4187325 0 0 1 -4.41885,-4.41885 4.4187325,4.4187325 0 0 1 4.41885,-4.41885 z m 12.78527,0 a 4.4187325,4.4187325 0 0 1 4.41885,4.41885 4.4187325,4.4187325 0 0 1 -4.41885,4.41885 4.4187325,4.4187325 0 0 1 -4.41885,-4.41885 4.4187325,4.4187325 0 0 1 4.41885,-4.41885 z m 44.29083,37.14295 c -3.84905,7.0275 -8.28754,13.7408 -13.33562,20.08095 -0.43919,0.55168 -0.8823,1.09984 -1.32911,1.64382 a 12.062104,12.062104 0 0 1 6.58151,5.91747 c 0.56154,-0.67996 1.1172,-1.36543 1.66759,-2.05672 5.42116,-6.80874 10.18278,-14.02248 14.30352,-21.57698 a 12.062104,12.062104 0 0 1 -7.88789,-4.00854 z m -112.92334,0.13953 a 12.062104,12.062104 0 0 1 -7.95403,3.88555 c 4.11851,7.54842 8.87685,14.75672 14.2937,21.56044 0.59186,0.74334 1.18946,1.48046 1.7942,2.21072 a 12.062104,12.062104 0 0 1 6.50245,-6.01307 c -0.463,-0.56306 -0.92177,-1.1299 -1.37666,-1.70119 -5.01456,-6.29855 -9.42834,-12.96543 -13.25966,-19.94245 z m 39.13715,3.85248 a 7.2569975,7.2569975 0 0 1 -0.11162,0.54622 7.2569975,7.2569975 0 0 0 0.11162,-0.54622 z m -0.19482,0.94774 a 7.2569975,7.2569975 0 0 1 -0.25218,0.72141 7.2569975,7.2569975 0 0 0 0.25218,-0.72141 z m -0.31884,0.91157 a 7.2569975,7.2569975 0 0 1 -0.43977,0.8661 c 0.92583,0.0743 1.84666,0.2294 2.75332,0.47387 l 29.87208,8.03156 c 0.006,0.0252 2.70112,8.46686 1.13688,19.31044 l -15.00684,-4.03489 c -0.20099,-0.0541 -0.40022,-0.11259 -0.59789,-0.17518 a 7.2569975,7.2569975 0 0 1 -0.0842,0.42788 7.2569975,7.2569975 0 0 0 0.15038,-1.40612 7.2569975,7.2569975 0 0 0 -7.25692,-7.25692 7.2569975,7.2569975 0 0 0 -7.21403,6.46989 l -13.80742,2.79363 a 9.2785417,9.2785417 0 0 0 -4.84105,-6.55413 l 7.41247,-14.64355 a 7.2569975,7.2569975 0 0 0 1.24798,0.10801 7.2569975,7.2569975 0 0 0 6.23528,-3.54449 7.2569975,7.2569975 0 0 0 0.43977,-0.8661 z m 17.55965,25.27546 a 7.2569975,7.2569975 0 0 1 -0.16485,0.52555 7.2569975,7.2569975 0 0 0 0.16485,-0.52555 z m -0.26045,0.82218 a 7.2569975,7.2569975 0 0 1 -0.24753,0.54725 7.2569975,7.2569975 0 0 0 0.24753,-0.54725 z" />
      <path
         id="path30-3"
         style="display:inline;fill:#4ab8d1;fill-opacity:1;stroke-width:0.471641"
         d="m 173.99507,98.411523 -6.89984,6.491077 c -0.87072,0.81931 -1.76649,1.61415 -2.68304,2.3859 a 12.062104,12.062104 0 0 1 4.98419,7.34994 c 1.28935,-1.05869 2.5441,-2.1575 3.75636,-3.29799 l 0.84233,-0.79168 0.84129,0.79168 c 1.26601,1.19101 2.57882,2.33665 3.92844,3.43855 a 12.062104,12.062104 0 0 1 4.90358,-7.41402 c -0.94835,-0.7956 -1.87446,-1.61599 -2.77399,-2.46238 z m -16.37316,9.567897 a 9.2785417,9.2785417 0 0 0 -9.2785,9.2785 9.2785417,9.2785417 0 0 0 7.72149,9.14673 c 1.07443,-4.06151 2.42515,-8.27969 4.0814,-12.73773 -4.59329,12.36354 -6.83662,22.88394 -7.35407,33.32665 l -37.61218,19.08721 -13.38419,-23.42648 a 9.2785417,9.2785417 0 0 0 3.54087,-7.29154 9.2785417,9.2785417 0 0 0 -9.278505,-9.27851 9.2785417,9.2785417 0 0 0 -9.278504,9.27851 9.2785417,9.2785417 0 0 0 9.278504,9.2785 9.2785417,9.2785417 0 0 0 2.461348,-0.33228 l 13.387817,23.43268 -7.79384,3.9548 a 9.2785417,9.2785417 0 0 0 -8.078063,-4.71393 9.2785417,9.2785417 0 0 0 -9.278503,9.27851 9.2785417,9.2785417 0 0 0 9.278503,9.2785 9.2785417,9.2785417 0 0 0 9.278503,-9.2785 9.2785417,9.2785417 0 0 0 -0.0134,-0.50385 l 8.67183,-4.40076 32.45125,56.79911 a 7.2569975,7.2569975 0 0 0 -3.48506,3.5047 l -25.01863,-8.66562 a 9.2785417,9.2785417 0 0 0 -9.2506,-8.55865 9.2785417,9.2785417 0 0 0 -9.278502,9.2785 9.2785417,9.2785417 0 0 0 9.278502,9.2785 9.2785417,9.2785417 0 0 0 8.85011,-6.49159 l 24.75197,8.57364 a 7.2569975,7.2569975 0 0 0 3.17139,5.6472 l -7.51169,14.84044 a 9.2785417,9.2785417 0 0 0 -1.35702,-0.0997 9.2785417,9.2785417 0 0 0 -9.27851,9.2785 9.2785417,9.2785417 0 0 0 9.27851,9.27851 9.2785417,9.2785417 0 0 0 9.1984,-8.06308 l 13.99295,-2.83083 a 7.2569975,7.2569975 0 0 0 6.95616,5.18986 7.2569975,7.2569975 0 0 0 5.95984,-3.1166 7.2569975,7.2569975 0 0 0 0.45114,-0.74104 7.2569975,7.2569975 0 0 1 -0.45114,0.74104 c 0.38447,0.0722 0.76685,0.15917 1.1467,0.26148 l 15.12053,4.06435 c -0.74061,3.68373 -1.84649,7.44616 -3.2489,11.42153 -3.58943,2.4666 -7.29099,4.7887 -11.09389,6.96805 l -0.61082,0.34985 -0.61185,-0.34985 c -9.22433,-5.28637 -17.85169,-11.41434 -25.73021,-18.40301 a 12.062104,12.062104 0 0 1 -6.24613,6.28178 c 8.43145,7.53041 17.67928,14.12453 27.58126,19.79931 l 5.00693,2.86959 5.00641,-2.86959 c 9.92822,-5.69006 19.19849,-12.30498 27.64793,-19.86029 a 12.062104,12.062104 0 0 1 -6.16552,-6.35051 c -3.69779,3.28912 -7.5611,6.38794 -11.57449,9.29865 -0.12563,0.20895 -0.30588,0.42754 -0.43459,0.63717 8.37786,-13.64721 10.25828,-25.88853 9.92807,-32.16961 -0.49497,-9.45875 -3.09527,-18.79462 -6.60631,-27.74352 a 30.371876,25.802657 0 0 1 -12.80801,4.49791 c 3.26186,6.22331 6.20728,12.5883 8.32043,19.31304 l -27.77195,-7.46622 c -0.94734,-0.25464 -1.87264,-0.585 -2.76056,-0.99115 a 7.2569975,7.2569975 0 0 1 -0.0377,0.524 7.2569975,7.2569975 0 0 0 0.0377,-0.56327 7.2569975,7.2569975 0 0 0 -6.50503,-7.21765 l -33.0264,-57.80577 35.42884,-17.97875 c -0.005,4.72919 0.3232,9.49671 0.92759,14.4663 0.48359,3.97661 1.30186,7.81425 2.37608,11.54555 a 30.371876,25.802657 0 0 1 13.25759,-4.76199 c -2.65758,-6.05452 -5.14281,-12.68246 -7.02489,-19.71766 l 29.03647,7.80366 c 0.92926,0.25061 1.82551,0.58416 2.68614,0.98961 a 7.2569975,7.2569975 0 0 0 7.01508,6.28643 l 7.81606,87.58381 a 9.2785417,9.2785417 0 0 0 -6.42493,8.82891 9.2785417,9.2785417 0 0 0 9.2785,9.27851 9.2785417,9.2785417 0 0 0 9.2785,-9.27851 9.2785417,9.2785417 0 0 0 -8.4894,-9.24491 l -7.4657,-83.66053 27.3849,46.022 a 9.2785417,9.2785417 0 0 0 -2.08205,5.85649 9.2785417,9.2785417 0 0 0 9.27851,9.2785 9.2785417,9.2785417 0 0 0 9.2785,-9.2785 9.2785417,9.2785417 0 0 0 -9.2785,-9.2785 9.2785417,9.2785417 0 0 0 -4.33359,1.07435 l -29.1915,-49.05902 a 7.2569975,7.2569975 0 0 0 1.4702,-1.85157 l 35.42936,11.06238 a 9.2785417,9.2785417 0 0 0 -0.0191,0.59893 9.2785417,9.2785417 0 0 0 9.2785,9.2785 9.2785417,9.2785417 0 0 0 9.2785,-9.2785 9.2785417,9.2785417 0 0 0 -9.2785,-9.27851 9.2785417,9.2785417 0 0 0 -8.40052,5.33921 l -35.37665,-11.04584 a 7.2569975,7.2569975 0 0 0 0.003,-0.20205 7.2569975,7.2569975 0 0 0 -0.19431,-1.6676 l 37.61528,-17.25993 a 9.2785417,9.2785417 0 0 0 6.33036,2.49494 9.2785417,9.2785417 0 0 0 9.27851,-9.2785 9.2785417,9.2785417 0 0 0 -9.27851,-9.27851 9.2785417,9.2785417 0 0 0 -9.2785,9.27851 9.2785417,9.2785417 0 0 0 0.87953,3.94291 l -37.11401,17.02945 a 7.2569975,7.2569975 0 0 0 -5.49527,-2.51819 h -5.2e-4 a 7.2569975,7.2569975 0 0 0 -0.76946,0.0408 l -11.60084,-13.29428 a 7.2569975,7.2569975 0 0 0 1.35133,-4.21731 7.2569975,7.2569975 0 0 0 -2.68975,-5.63945 l 1.71152,-4.28294 a 9.2785417,9.2785417 0 0 0 1.44229,0.11265 9.2785417,9.2785417 0 0 0 9.2785,-9.2785 9.2785417,9.2785417 0 0 0 -9.2785,-9.2785 9.2785417,9.2785417 0 0 0 -9.2785,9.2785 9.2785417,9.2785417 0 0 0 5.02139,8.24394 l -1.53737,3.84783 a 7.2569975,7.2569975 0 0 0 -1.9265,-0.26045 7.2569975,7.2569975 0 0 0 -5.99808,3.1719 c -1.16904,-0.064 -2.33009,-0.23843 -3.46904,-0.54519 l -14.6172,-3.92947 c 0.004,-0.44046 0.0105,-0.88158 0.0212,-1.32344 a 9.2785417,9.2785417 0 0 0 8.11475,-9.20512 9.2785417,9.2785417 0 0 0 -9.2785,-9.2785 z m -11.9109,11.18071 c -6.98964,3.35413 -14.34709,5.8782 -21.90047,7.61142 -5.68709,1.30468 -11.4708,2.15959 -17.28732,2.59312 a 12.062104,12.062104 0 0 1 1.59732,5.99809 12.062104,12.062104 0 0 1 -0.32091,2.7621 c 6.05086,-0.47744 12.06764,-1.37857 17.98598,-2.73626 8.21167,-1.88454 16.20097,-4.64286 23.79596,-8.29356 0.21402,-0.10282 0.42785,-0.2068 0.64131,-0.31109 a 12.062104,12.062104 0 0 1 -4.51187,-7.62382 z m 56.75467,0.0894 a 12.062104,12.062104 0 0 1 -4.57594,7.5954 c 0.17219,0.084 0.3447,0.16716 0.51728,0.25011 7.59498,3.65071 15.58559,6.40902 23.79751,8.29356 5.98518,1.37311 12.07049,2.27914 18.19062,2.75228 a 12.062104,12.062104 0 0 1 -0.32401,-2.77812 12.062104,12.062104 0 0 1 1.58853,-5.98413 c -5.88186,-0.42889 -11.73051,-1.2879 -17.4811,-2.60708 -7.48605,-1.71778 -14.77905,-4.21242 -21.71289,-7.52202 z m -43.6516,12.17393 13.84722,3.72122 c 1.01726,0.27399 1.99389,0.65289 2.93005,1.11621 a 7.2569975,7.2569975 0 0 0 0,0.0853 7.2569975,7.2569975 0 0 0 7.25744,7.25692 7.2569975,7.2569975 0 0 0 3.73259,-1.03353 l 10.74973,12.31811 a 7.2569975,7.2569975 0 0 0 -2.83652,3.2365 c -0.84705,-0.1071 -1.6883,-0.27427 -2.51561,-0.49661 l -30.73507,-8.261 c -1.32366,-5.76924 -2.20952,-11.77725 -2.42983,-17.94309 z m -69.386975,14.01517 c -0.08022,1.75053 -0.129275,3.50248 -0.150378,5.25394 -0.05164,4.27325 0.05864,8.54972 0.307991,12.81627 0.04803,0.82047 0.101032,1.64046 0.15968,2.46032 a 12.062104,12.062104 0 0 1 6.291089,-1.77044 12.062104,12.062104 0 0 1 2.465999,0.25477 c -0.03189,-0.47992 -0.06232,-0.96007 -0.09043,-1.44022 -0.237985,-4.06574 -0.352906,-8.14343 -0.303858,-12.21683 0.01434,-1.18742 0.04291,-2.37491 0.08578,-3.56206 a 12.062104,12.062104 0 0 1 -2.134753,0.19017 12.062104,12.062104 0 0 1 -6.63112,-1.98592 z m 169.141095,0.12609 a 12.062104,12.062104 0 0 1 -6.43526,1.85983 12.062104,12.062104 0 0 1 -2.33681,-0.22841 c 0.0437,1.19994 0.0721,2.40007 0.0863,3.6003 0.0493,4.07291 -0.0666,8.15059 -0.30438,12.21683 -0.0288,0.49505 -0.0599,0.98985 -0.093,1.48466 a 12.062104,12.062104 0 0 1 2.67063,-0.29921 12.062104,12.062104 0 0 1 6.09679,1.65417 c 0.0553,-0.78133 0.10567,-1.56319 0.15141,-2.34508 0.25004,-4.26605 0.35976,-8.54253 0.30851,-12.81627 -0.0207,-1.70894 -0.0675,-3.41863 -0.14418,-5.12682 z m -85.14984,30.4555 a 27.808188,22.496511 0 0 0 -27.80864,22.49631 27.808188,22.496511 0 0 0 9.29142,16.78347 l -2.99878,10.59367 12.62817,-6.06113 a 27.808188,22.496511 0 0 0 8.88783,1.18029 27.808188,22.496511 0 0 0 27.80864,-22.4963 27.808188,22.496511 0 0 0 -27.80864,-22.49631 z m 73.11285,10.91097 c -1.03392,5.21785 -2.31086,10.38839 -3.84059,15.48277 -0.93688,3.11906 -1.96495,6.19929 -3.0856,9.2382 a 12.062104,12.062104 0 0 1 8.20932,3.30212 c 1.21958,-3.29091 2.33596,-6.62855 3.35121,-10.00869 1.68474,-5.60919 3.08108,-11.30573 4.19561,-17.05581 a 12.062104,12.062104 0 0 1 -3.20549,0.43305 12.062104,12.062104 0 0 1 -5.62446,-1.39164 z m -145.05419,0.0946 a 12.062104,12.062104 0 0 1 -5.441533,1.29708 12.062104,12.062104 0 0 1 -3.418396,-0.49454 c 1.116517,5.77084 2.516526,11.48823 4.207495,17.1173 1.029953,3.42906 2.164175,6.81415 3.404444,10.15132 a 12.062104,12.062104 0 0 1 8.15712,-3.44165 c -1.12101,-3.03987 -2.14901,-6.12118 -3.08611,-9.2413 -1.52088,-5.06361 -2.79233,-10.20229 -3.82302,-15.38821 z m 59.15607,7.54528 a 4.4187325,4.4187325 0 0 1 4.41886,4.41885 4.4187325,4.4187325 0 0 1 -4.41886,4.41885 4.4187325,4.4187325 0 0 1 -4.41885,-4.41885 4.4187325,4.4187325 0 0 1 4.41885,-4.41885 z m 12.78527,0 a 4.4187325,4.4187325 0 0 1 4.41885,4.41885 4.4187325,4.4187325 0 0 1 -4.41885,4.41885 4.4187325,4.4187325 0 0 1 -4.41885,-4.41885 4.4187325,4.4187325 0 0 1 4.41885,-4.41885 z m 12.78527,0 a 4.4187325,4.4187325 0 0 1 4.41885,4.41885 4.4187325,4.4187325 0 0 1 -4.41885,4.41885 4.4187325,4.4187325 0 0 1 -4.41885,-4.41885 4.4187325,4.4187325 0 0 1 4.41885,-4.41885 z m 44.29083,37.14295 c -3.84905,7.0275 -8.28754,13.7408 -13.33562,20.08095 -0.43919,0.55168 -0.8823,1.09984 -1.32911,1.64382 a 12.062104,12.062104 0 0 1 6.58151,5.91747 c 0.56154,-0.67996 1.1172,-1.36543 1.66759,-2.05672 5.42116,-6.80874 10.18278,-14.02248 14.30352,-21.57698 a 12.062104,12.062104 0 0 1 -7.88789,-4.00854 z m -112.92334,0.13953 a 12.062104,12.062104 0 0 1 -7.95403,3.88555 c 4.11851,7.54842 8.87685,14.75672 14.2937,21.56044 0.59186,0.74334 1.18946,1.48046 1.7942,2.21072 a 12.062104,12.062104 0 0 1 6.50245,-6.01307 c -0.463,-0.56306 -0.92177,-1.1299 -1.37666,-1.70119 -5.01456,-6.29855 -9.42834,-12.96543 -13.25966,-19.94245 z m 39.13715,3.85248 a 7.2569975,7.2569975 0 0 1 -0.11162,0.54622 7.2569975,7.2569975 0 0 0 0.11162,-0.54622 z m -0.19482,0.94774 a 7.2569975,7.2569975 0 0 1 -0.25218,0.72141 7.2569975,7.2569975 0 0 0 0.25218,-0.72141 z m -0.31884,0.91157 a 7.2569975,7.2569975 0 0 1 -0.43977,0.8661 c 0.92583,0.0743 1.84666,0.2294 2.75332,0.47387 l 29.87208,8.03156 c 0.006,0.0252 2.70112,8.46686 1.13688,19.31044 l -15.00684,-4.03489 c -0.20099,-0.0541 -0.40022,-0.11259 -0.59789,-0.17518 a 7.2569975,7.2569975 0 0 1 -0.0842,0.42788 7.2569975,7.2569975 0 0 0 0.15038,-1.40612 7.2569975,7.2569975 0 0 0 -7.25692,-7.25692 7.2569975,7.2569975 0 0 0 -7.21403,6.46989 l -13.80742,2.79363 a 9.2785417,9.2785417 0 0 0 -4.84105,-6.55413 l 7.41247,-14.64355 a 7.2569975,7.2569975 0 0 0 1.24798,0.10801 7.2569975,7.2569975 0 0 0 6.23528,-3.54449 7.2569975,7.2569975 0 0 0 0.43977,-0.8661 z m 17.55965,25.27546 a 7.2569975,7.2569975 0 0 1 -0.16485,0.52555 7.2569975,7.2569975 0 0 0 0.16485,-0.52555 z m -0.26045,0.82218 a 7.2569975,7.2569975 0 0 1 -0.24753,0.54725 7.2569975,7.2569975 0 0 0 0.24753,-0.54725 z" />
    </g>
  </g>
</svg>
