<?xml version="1.0" encoding="UTF-8" standalone="no"?>
<!-- Created with Inkscape (http://www.inkscape.org/) -->

<svg
   width="1024"
   height="1024"
   viewBox="0 0 270.93334 270.93334"
   version="1.1"
   id="svg1"
   inkscape:version="1.4.2 (ebf0e940d0, 2025-05-08)"
   sodipodi:docname="logo.svg"
   xmlns:inkscape="http://www.inkscape.org/namespaces/inkscape"
   xmlns:sodipodi="http://sodipodi.sourceforge.net/DTD/sodipodi-0.dtd"
   xmlns="http://www.w3.org/2000/svg"
   xmlns:svg="http://www.w3.org/2000/svg">
  <sodipodi:namedview
     id="namedview1"
     pagecolor="#ffffff"
     bordercolor="#000000"
     borderopacity="0.25"
     inkscape:showpageshadow="2"
     inkscape:pageopacity="0.0"
     inkscape:pagecheckerboard="false"
     inkscape:deskcolor="#d1d1d1"
     inkscape:document-units="mm"
     inkscape:antialias-rendering="true"
     inkscape:clip-to-page="false"
     inkscape:zoom="0.49953305"
     inkscape:cx="54.050478"
     inkscape:cy="339.31689"
     inkscape:window-width="1920"
     inkscape:window-height="1011"
     inkscape:window-x="0"
     inkscape:window-y="0"
     inkscape:window-maximized="1"
     inkscape:current-layer="layer1" />
  <defs
     id="defs1" />
  <g
     inkscape:label="Layer 1"
     inkscape:groupmode="layer"
     id="layer1"
     transform="translate(-38.629172,-62.441667)">
    <circle
       style="fill:#000080;fill-opacity:1;stroke-width:0.337532"
       id="path1"
       cx="174.09584"
       cy="197.90834"
       r="125.67709" />
    <g
       id="g24"
       transform="matrix(0.27586039,0,0,0.27586039,590.73033,47.918441)"
       style="display:inline">
      <path
         id="path14"
         style="fill:#f9f9f9;fill-opacity:1;stroke-width:0.471641"
         d="m 134.02928,122.86499 a 26.671401,21.576863 0 0 0 -26.67173,21.5767 26.671401,21.576863 0 0 0 8.91147,16.09753 l -2.87592,10.16057 12.11162,-5.81352 a 26.671401,21.576863 0 0 0 8.52456,1.13209 26.671401,21.576863 0 0 0 26.67172,-21.57667 26.671401,21.576863 0 0 0 -26.67172,-21.5767 z m -12.2627,17.79249 a 4.2380965,4.2380965 0 0 1 4.23835,4.23834 4.2380965,4.2380965 0 0 1 -4.23835,4.23833 4.2380965,4.2380965 0 0 1 -4.23832,-4.23833 4.2380965,4.2380965 0 0 1 4.23832,-4.23834 z m 12.2627,0 a 4.2380965,4.2380965 0 0 1 4.23834,4.23834 4.2380965,4.2380965 0 0 1 -4.23834,4.23833 4.2380965,4.2380965 0 0 1 -4.23832,-4.23833 4.2380965,4.2380965 0 0 1 4.23832,-4.23834 z m 12.26269,0 a 4.2380965,4.2380965 0 0 1 4.23834,4.23834 4.2380965,4.2380965 0 0 1 -4.23834,4.23833 4.2380965,4.2380965 0 0 1 -4.23833,-4.23833 4.2380965,4.2380965 0 0 1 4.23833,-4.23834 z"
         transform="matrix(3.7795276,0,0,3.7795276,-2019.3325,0)" />
      <path
         id="path1-4"
         style="fill:#ffffff;fill-opacity:1;fill-rule:evenodd;stroke:none;stroke-width:0.185738"
         d="m -1510.6744,183.03902 -25.0121,23.52933 c -3.1564,2.97 -6.4043,5.85171 -9.7268,8.64933 a 43.725394,43.725394 0 0 1 18.0687,26.64463 c 4.6739,-3.83779 9.223,-7.82084 13.6175,-11.95514 l 3.0527,-2.8704 3.0499,2.8704 c 4.5893,4.31742 9.3483,8.46948 14.2407,12.4639 a 43.725394,43.725394 0 0 1 17.7749,-26.87587 c -3.4378,-2.88407 -6.7953,-5.85866 -10.0561,-8.92685 z m -102.5299,75.21328 c -25.3376,12.15879 -52.0084,21.30841 -79.3896,27.59138 -20.6158,4.72948 -41.5826,7.82872 -62.6676,9.40029 a 43.725394,43.725394 0 0 1 5.7897,21.74447 43.725394,43.725394 0 0 1 -1.1618,10.01251 c 21.9345,-1.73073 43.744,-4.99831 65.1981,-9.92 29.7675,-6.83149 58.7303,-16.83073 86.2623,-30.06459 0.7758,-0.37276 1.5498,-0.74838 2.3236,-1.12641 a 43.725394,43.725394 0 0 1 -16.3547,-27.63765 z m 205.7372,0.32379 a 43.725394,43.725394 0 0 1 -16.5885,27.53431 c 0.6242,0.30433 1.249,0.60528 1.8746,0.90601 27.532,13.23387 56.4993,23.2331 86.2677,30.06458 21.6964,4.97756 43.7551,8.26199 65.9407,9.97713 a 43.725394,43.725394 0 0 1 -1.1753,-10.06963 43.725394,43.725394 0 0 1 5.76,-21.69276 c -21.3219,-1.55472 -42.5238,-4.66993 -63.3698,-9.452 -27.1371,-6.22701 -53.5741,-15.27027 -78.7094,-27.26764 z m -409.7684,94.93617 c -0.2908,6.34573 -0.4676,12.69635 -0.5441,19.04545 -0.1872,15.49062 0.2115,30.99371 1.1154,46.46005 0.1741,2.97421 0.3671,5.94669 0.5797,8.9187 a 43.725394,43.725394 0 0 1 22.8055,-6.41834 43.725394,43.725394 0 0 1 8.9378,0.92507 c -0.1156,-1.73972 -0.2247,-3.4806 -0.3266,-5.22118 -0.8627,-14.73839 -1.2796,-29.51992 -1.1018,-44.2861 0.052,-4.30444 0.1546,-8.60939 0.31,-12.91281 a 43.725394,43.725394 0 0 1 -7.7377,0.68835 43.725394,43.725394 0 0 1 -24.0382,-7.19919 z m 613.1413,0.457 a 43.725394,43.725394 0 0 1 -23.328,6.74214 43.725394,43.725394 0 0 1 -8.4726,-0.82714 c 0.1585,4.34981 0.2612,8.70073 0.3127,13.05159 0.1786,14.7644 -0.24,29.54593 -1.1018,44.28611 -0.1045,1.79459 -0.2175,3.58802 -0.3376,5.38171 a 43.725394,43.725394 0 0 1 9.6807,-1.0856 43.725394,43.725394 0 0 1 22.1008,5.99661 c 0.2006,-2.83233 0.3838,-5.66534 0.5496,-8.49972 0.9064,-15.46454 1.3041,-30.96763 1.1183,-46.46004 -0.075,-6.19499 -0.2443,-12.39335 -0.5224,-18.58566 z m -43.636,149.95578 c -3.748,18.91484 -8.3769,37.65697 -13.9222,56.12422 -3.3962,11.30666 -7.1227,22.474 -11.1851,33.49012 a 43.725394,43.725394 0 0 1 29.7599,11.96869 c 4.421,-11.92963 8.468,-24.02851 12.1483,-36.28159 6.1072,-20.33344 11.169,-40.98284 15.2092,-61.82699 a 43.725394,43.725394 0 0 1 -11.6205,1.56987 43.725394,43.725394 0 0 1 -20.3896,-5.04432 z m -525.8232,0.34276 a 43.725394,43.725394 0 0 1 -19.7256,4.70152 43.725394,43.725394 0 0 1 -12.3931,-1.79301 c 4.0474,20.91943 9.1228,41.6446 15.2526,62.05011 3.7336,12.43042 7.8455,24.70126 12.3415,36.79856 a 43.725394,43.725394 0 0 1 29.5694,-12.47482 c -4.0637,-11.01959 -7.7908,-22.19045 -11.1878,-33.50096 -5.5132,-18.35572 -10.1207,-36.98235 -13.857,-55.7814 z m 467.6911,161.99523 c -13.9529,25.47485 -30.0435,49.81128 -48.3429,72.79445 -1.5921,1.99987 -3.1988,3.98653 -4.8185,5.95849 a 43.725394,43.725394 0 0 1 23.8586,21.45063 c 2.0356,-2.46488 4.0504,-4.94897 6.0456,-7.45492 19.6518,-24.68183 36.9121,-50.83175 51.8499,-78.21696 a 43.725394,43.725394 0 0 1 -28.5927,-14.53169 z m -409.3494,0.50596 a 43.725394,43.725394 0 0 1 -28.8348,14.08549 c 14.9297,27.3632 32.1783,53.49348 51.8145,78.1571 2.1455,2.69464 4.3132,5.36548 6.5054,8.01269 a 43.725394,43.725394 0 0 1 23.5701,-21.79617 c -1.6784,-2.0411 -3.3409,-4.09704 -4.9899,-6.16799 -18.1779,-22.83237 -34.1767,-46.99928 -48.0653,-72.29112 z m 300.5591,136.04169 c -28.7032,25.53102 -60.1599,47.89928 -93.807,67.18151 l -2.2148,1.26787 -2.2174,-1.26787 c -33.4384,-19.16318 -64.7139,-41.37672 -93.2737,-66.71082 a 43.725394,43.725394 0 0 1 -22.6424,22.7702 c 30.5642,27.29791 64.0883,51.20293 99.9832,71.77415 l 18.1503,10.40153 18.1477,-10.40153 c 35.99,-20.6266 69.5958,-44.60639 100.2252,-71.99454 a 43.725394,43.725394 0 0 1 -22.3511,-23.0205 z" />
      <circle
         style="fill:#ffffff;fill-opacity:1;stroke-width:1.39304"
         id="path16-2-9-9-1-1-3-4"
         cx="-1374.2922"
         cy="785.98792"
         r="33.634918" />
      <circle
         style="fill:#ffffff;fill-opacity:1;stroke-width:1.39304"
         id="path16-2-9-9-1-1-3-6-7"
         cx="-1273.136"
         cy="637.26471"
         r="33.634918" />
      <circle
         style="fill:#ffffff;fill-opacity:1;stroke-width:1.39304"
         id="path16-2-9-9-1-1-3-6-6-44"
         cx="-1227.4219"
         cy="316.98724"
         r="33.634918" />
      <circle
         style="fill:#ffffff;fill-opacity:1;stroke-width:1.39304"
         id="path16-2-9-9-1-1-3-6-6-4-3"
         cx="-1227.3394"
         cy="465.2446"
         r="33.634918" />
      <circle
         style="fill:#ffffff;fill-opacity:1;stroke-width:1.39304"
         id="path16-2-9-9-1-1-3-6-6-4-6-0"
         cx="-1450.5914"
         cy="251.35742"
         r="33.634918" />
      <circle
         style="fill:#ffffff;fill-opacity:1;stroke-width:1.39304"
         id="path16-2-9-9-1-1-3-4-4"
         cx="1646.3262"
         cy="785.98792"
         r="33.634918"
         transform="scale(-1,1)" />
      <circle
         style="fill:#ffffff;fill-opacity:1;stroke-width:1.39304"
         id="path16-2-9-9-1-1-3-6-7-8"
         cx="1747.4823"
         cy="637.26471"
         r="33.634918"
         transform="scale(-1,1)" />
      <circle
         style="fill:#ffffff;fill-opacity:1;stroke-width:1.39304"
         id="path16-2-9-9-1-1-3-6-6-44-7"
         cx="1793.1965"
         cy="316.98724"
         r="33.634918"
         transform="scale(-1,1)" />
      <circle
         style="fill:#ffffff;fill-opacity:1;stroke-width:1.39304"
         id="path16-2-9-9-1-1-3-6-6-4-3-1"
         cx="1793.2791"
         cy="465.2446"
         r="33.634918"
         transform="scale(-1,1)" />
      <circle
         style="fill:#ffffff;fill-opacity:1;stroke-width:1.39304"
         id="path16-2-9-9-1-1-3-6-6-4-6-0-7"
         cx="1570.027"
         cy="251.35742"
         r="33.634918"
         transform="scale(-1,1)" />
      <path
         id="path39"
         style="fill:#ffffff;fill-opacity:1;fill-rule:nonzero;stroke:none;stroke-width:0.0903435"
         d="m -1560.8774,238.33985 c -26.6893,71.83816 -31.4916,126.50899 -23.7246,190.37305 1.753,14.41532 4.7192,28.32552 8.6133,41.85156 a 110.09872,93.535202 0 0 1 48.0586,-17.26172 c -9.6338,-21.94777 -18.6423,-45.97383 -25.4649,-71.47656 l 105.2578,28.28711 c 3.3686,0.90847 6.6185,2.11815 9.7383,3.58789 a 26.306776,26.306776 0 0 0 26.0703,22.79687 26.306776,26.306776 0 0 0 26.3067,-26.30664 26.306776,26.306776 0 0 0 -26.3067,-26.30664 26.306776,26.306776 0 0 0 -24.0351,15.61328 c -3.0706,-0.38823 -6.1202,-0.99477 -9.1192,-1.80078 l -111.414,-29.94531 c -4.7983,-20.91362 -8.01,-42.69361 -8.8086,-65.04492 l 50.1953,13.49023 c 3.6876,0.99321 7.2294,2.36731 10.623,4.04687 a 26.306776,26.306776 0 0 0 0,0.3086 26.306776,26.306776 0 0 0 26.3067,26.30664 26.306776,26.306776 0 0 0 26.3066,-26.30664 26.306776,26.306776 0 0 0 -26.3066,-26.30664 26.306776,26.306776 0 0 0 -21.7422,11.49804 c -4.2378,-0.23195 -8.4475,-0.86456 -12.5762,-1.97656 l -52.9863,-14.24414 c 0.1365,-16.82078 1.6868,-33.932 5.0098,-51.18359 z m 114.7344,383.30078 a 110.09872,93.535202 0 0 1 -46.4297,16.30664 c 11.8243,22.55961 22.5019,45.63247 30.1621,70.00977 l -100.6738,-27.06641 c -10.2152,-2.74583 -19.7279,-7.91398 -27.0508,-15.54297 -1.9819,-2.06042 -4.5388,-3.63553 -7.5078,-4.43164 -8.9933,-2.41494 -18.2498,3.16402 -20.2168,12.39063 -1.6704,7.87154 2.8199,15.97676 10.3887,18.7168 3.2169,1.15642 6.5141,1.25953 9.541,0.49414 10.2432,-2.56988 20.9201,-2.93473 31.1152,-0.18555 l 108.2871,29.11328 c 0.021,0.0915 9.7915,30.69374 4.1211,70.00196 l -54.4004,-14.62696 c -8.4678,-2.28062 -16.1211,-6.67397 -22.9414,-12.19922 -1.3612,-1.10227 -2.9644,-1.93913 -4.7695,-2.43164 -7.108,-1.90702 -14.4185,2.4893 -16.0078,9.76172 -1.3389,6.15839 2.0912,12.55434 7.9863,14.80469 2.1898,0.83868 4.4326,1.0497 6.5547,0.73242 8.924,-1.33261 18.0018,-1.23668 26.7051,1.10742 l 54.8125,14.73438 c -3.8735,19.26653 -10.5033,39.12572 -19.1407,61.04101 45.5207,-59.37358 54.8127,-115.51864 53.4122,-142.1582 -1.7943,-34.2882 -11.2197,-68.13231 -23.9473,-100.57227 z" />
      <circle
         style="font-variation-settings:normal;vector-effect:none;fill:#ffffff;fill-opacity:1;stroke-width:0.771428;stroke-linecap:butt;stroke-linejoin:miter;stroke-miterlimit:4;stroke-dasharray:none;stroke-dashoffset:0;stroke-opacity:1;-inkscape-stroke:none"
         id="path24-8-5"
         cx="-1599.3982"
         cy="677.15588"
         r="26.306776" />
      <circle
         style="font-variation-settings:normal;vector-effect:none;fill:#ffffff;fill-opacity:1;stroke-width:0.771428;stroke-linecap:butt;stroke-linejoin:miter;stroke-miterlimit:4;stroke-dasharray:none;stroke-dashoffset:0;stroke-opacity:1;-inkscape-stroke:none"
         id="path24-8-5-4"
         cx="-1537.0414"
         cy="772.63971"
         r="26.306776" />
      <rect
         style="font-variation-settings:normal;opacity:1;vector-effect:none;fill:#ffffff;fill-opacity:1;stroke-width:0.846022;stroke-linecap:butt;stroke-linejoin:miter;stroke-miterlimit:4;stroke-dasharray:none;stroke-dashoffset:0;stroke-opacity:1;-inkscape-stroke:none"
         id="rect24"
         width="117.46287"
         height="10.715911"
         x="-865.80194"
         y="-1257.0272"
         transform="rotate(-68.220535)" />
      <rect
         style="font-variation-settings:normal;vector-effect:none;fill:#ffffff;fill-opacity:1;stroke-width:0.846022;stroke-linecap:butt;stroke-linejoin:miter;stroke-miterlimit:4;stroke-dasharray:none;stroke-dashoffset:0;stroke-opacity:1;-inkscape-stroke:none"
         id="rect24-3"
         width="117.46287"
         height="10.715911"
         x="617.5224"
         y="-1329.4542"
         transform="rotate(-131.10863)" />
      <rect
         style="font-variation-settings:normal;vector-effect:none;fill:#ffffff;fill-opacity:1;stroke-width:1.05738;stroke-linecap:butt;stroke-linejoin:miter;stroke-miterlimit:4;stroke-dasharray:none;stroke-dashoffset:0;stroke-opacity:1;-inkscape-stroke:none"
         id="rect24-3-6"
         width="156.5058"
         height="12.563137"
         x="960.02051"
         y="-822.82898"
         transform="matrix(-0.95454921,-0.29805337,0.40115675,-0.91600942,0,0)" />
      <rect
         style="font-variation-settings:normal;vector-effect:none;fill:#ffffff;fill-opacity:1;stroke-width:1.05738;stroke-linecap:butt;stroke-linejoin:miter;stroke-miterlimit:4;stroke-dasharray:none;stroke-dashoffset:0;stroke-opacity:1;-inkscape-stroke:none"
         id="rect24-3-6-5"
         width="156.5058"
         height="12.563137"
         x="1300.1392"
         y="212.27477"
         transform="matrix(-0.90889091,0.41703394,-0.31461673,-0.94921879,0,0)" />
      <rect
         style="font-variation-settings:normal;vector-effect:none;fill:#ffffff;fill-opacity:1;stroke-width:1.05738;stroke-linecap:butt;stroke-linejoin:miter;stroke-miterlimit:4;stroke-dasharray:none;stroke-dashoffset:0;stroke-opacity:1;-inkscape-stroke:none"
         id="rect24-3-6-5-8"
         width="156.5058"
         height="12.563137"
         x="1167.7312"
         y="-1180.3003"
         transform="matrix(-0.94492291,-0.32729298,0.42916127,-0.90322788,0,0)" />
      <rect
         style="font-variation-settings:normal;vector-effect:none;fill:#ffffff;fill-opacity:1;stroke-width:1.47349;stroke-linecap:butt;stroke-linejoin:miter;stroke-miterlimit:4;stroke-dasharray:none;stroke-dashoffset:0;stroke-opacity:1;-inkscape-stroke:none"
         id="rect24-3-6-59"
         width="266.85001"
         height="14.308515"
         x="675.10785"
         y="-1543.5673"
         transform="matrix(-0.51134935,-0.85937293,0.60573197,-0.79566877,0,0)" />
      <rect
         style="font-variation-settings:normal;vector-effect:none;fill:#ffffff;fill-opacity:1;stroke-width:1.81807;stroke-linecap:butt;stroke-linejoin:miter;stroke-miterlimit:4;stroke-dasharray:none;stroke-dashoffset:0;stroke-opacity:1;-inkscape-stroke:none"
         id="rect24-3-6-59-88"
         width="372.97986"
         height="15.584937"
         x="228.90857"
         y="-1696.2404"
         transform="matrix(-0.08888617,-0.99604179,0.80274946,-0.59631645,0,0)" />
      <rect
         style="font-variation-settings:normal;vector-effect:none;fill:#ffffff;fill-opacity:1;stroke-width:1.81807;stroke-linecap:butt;stroke-linejoin:miter;stroke-miterlimit:4;stroke-dasharray:none;stroke-dashoffset:0;stroke-opacity:1;-inkscape-stroke:none"
         id="rect24-3-6-59-88-4"
         width="372.97986"
         height="15.584937"
         x="1265.7809"
         y="-2020.4495"
         transform="matrix(-0.4960739,-0.8682803,0.4810256,-0.87670655,0,0)" />
      <rect
         style="font-variation-settings:normal;vector-effect:none;fill:#ffffff;fill-opacity:1;stroke-width:1.47241;stroke-linecap:butt;stroke-linejoin:miter;stroke-miterlimit:4;stroke-dasharray:none;stroke-dashoffset:0;stroke-opacity:1;-inkscape-stroke:none"
         id="rect24-3-6-59-88-4-9"
         width="252.93285"
         height="15.073533"
         x="-1817.1344"
         y="-398.17517"
         transform="matrix(0.89174706,-0.45253418,0.46386866,0.88590398,0,0)" />
      <rect
         style="font-variation-settings:normal;vector-effect:none;fill:#ffffff;fill-opacity:1;stroke-width:0.744425;stroke-linecap:butt;stroke-linejoin:miter;stroke-miterlimit:4;stroke-dasharray:none;stroke-dashoffset:0;stroke-opacity:1;-inkscape-stroke:none"
         id="rect24-3-6-59-8"
         width="90.471382"
         height="10.772029"
         x="-1888.9225"
         y="463.81082"
         transform="matrix(0.98014143,-0.19829971,0.46978336,0.88278174,0,0)" />
      <rect
         style="font-variation-settings:normal;vector-effect:none;fill:#ffffff;fill-opacity:1;stroke-width:0.780646;stroke-linecap:butt;stroke-linejoin:miter;stroke-miterlimit:4;stroke-dasharray:none;stroke-dashoffset:0;stroke-opacity:1;-inkscape-stroke:none"
         id="rect24-3-6-59-8-6"
         width="91.885536"
         height="11.663454"
         x="-1048.7865"
         y="-1189.7885"
         transform="matrix(0.45160156,-0.89221972,0.99077726,0.13550061,0,0)" />
    </g>
  </g>
</svg>
