<svg width="321" height="64" viewBox="0 0 321 64" fill="none" xmlns="http://www.w3.org/2000/svg">
<g clip-path="url(#clip0_2162_26643)">
<path fill-rule="evenodd" clip-rule="evenodd" d="M302.305 45.884V15.2541H319.96V18.9226H306.353V28.0276H318.457V31.6077H306.353V42.2154H321.003V45.884H302.305ZM278.931 41.6409C278.652 40.9337 278.284 40.035 277.825 38.9447C277.366 37.8545 276.872 36.6759 276.343 35.4088C275.814 34.1418 275.251 32.8379 274.653 31.4972C274.054 30.1566 273.491 28.8895 272.962 27.6961C272.433 26.5028 271.94 25.4346 271.48 24.4917C271.021 23.5488 270.653 22.8268 270.374 22.326C270.068 25.8029 269.818 29.5672 269.623 33.6187C269.428 37.6704 269.261 41.7587 269.122 45.884H265.157C265.268 43.232 265.394 40.558 265.533 37.8618C265.672 35.1657 265.832 32.5138 266.013 29.9062C266.194 27.2984 266.389 24.757 266.597 22.2818C266.806 19.8067 267.035 17.4641 267.286 15.2541H270.834C271.585 16.5507 272.392 18.0828 273.254 19.8508C274.117 21.6188 274.98 23.4677 275.842 25.3978C276.705 27.3278 277.539 29.2578 278.346 31.1878C279.153 33.1178 279.891 34.8785 280.558 36.4696C281.226 34.8784 281.964 33.1178 282.771 31.1878C283.578 29.2578 284.412 27.3279 285.275 25.3978C286.137 23.4677 287 21.6188 287.863 19.8508C288.725 18.0828 289.532 16.5507 290.283 15.2541H293.831C294.777 25.1252 295.487 35.3351 295.96 45.884H291.995C291.856 41.7587 291.689 37.6704 291.494 33.6187C291.299 29.5672 291.049 25.8029 290.742 22.326C290.464 22.8268 290.096 23.5488 289.636 24.4917C289.177 25.4346 288.683 26.5028 288.155 27.6961C287.626 28.8895 287.063 30.1565 286.464 31.4972C285.866 32.8379 285.303 34.1418 284.774 35.4088C284.245 36.6759 283.751 37.8545 283.292 38.9447C282.833 40.035 282.464 40.9337 282.186 41.6409H278.931ZM253.806 34.525C252.915 31.9614 252.032 29.4789 251.155 27.0774C250.279 24.676 249.368 22.3703 248.422 20.1604C247.448 22.3703 246.523 24.676 245.646 27.0774C244.77 29.4789 243.9 31.9614 243.038 34.525H253.806ZM257.603 45.8835C257.13 44.5575 256.685 43.2536 256.267 41.9719C255.85 40.6901 255.418 39.3862 254.973 38.0603H241.868L239.238 45.8835H235.023C236.136 42.6422 237.179 39.6441 238.153 36.8891C239.127 34.1339 240.08 31.5189 241.012 29.0436C241.944 26.5685 242.869 24.2039 243.788 21.9498C244.706 19.6956 245.666 17.4636 246.667 15.2536H250.382C251.384 17.4636 252.344 19.6956 253.262 21.9498C254.18 24.2039 255.105 26.5685 256.038 29.0436C256.97 31.5189 257.923 34.1339 258.897 36.8891C259.871 39.6441 260.914 42.6422 262.027 45.8835H257.603ZM218.871 18.7017C217.146 18.7017 215.824 18.746 214.906 18.8344V30.3703H217.786C219.177 30.3703 220.429 30.2966 221.542 30.1493C222.655 30.0019 223.594 29.7221 224.359 29.3095C225.125 28.8969 225.716 28.315 226.133 27.5636C226.551 26.8122 226.759 25.8178 226.759 24.5803C226.759 23.4311 226.551 22.4734 226.133 21.7073C225.716 20.9412 225.152 20.3371 224.443 19.8951C223.733 19.4532 222.898 19.1438 221.939 18.967C220.979 18.7902 219.956 18.7017 218.871 18.7017V18.7017ZM225.006 33.0662C225.451 33.6555 226.014 34.4289 226.696 35.3866C227.378 36.3442 228.08 37.405 228.804 38.5689C229.527 39.7329 230.244 40.9483 230.953 42.2153C231.663 43.4825 232.268 44.7052 232.769 45.8839H228.345C227.788 44.7641 227.183 43.6297 226.529 42.4805C225.875 41.3314 225.214 40.2338 224.547 39.1877C223.879 38.1416 223.218 37.1619 222.564 36.2485C221.91 35.335 221.319 34.5395 220.79 33.8618C220.428 33.8913 220.06 33.906 219.684 33.906C219.308 33.906 218.926 33.906 218.536 33.906H214.905V45.8839H210.857V15.696C211.997 15.4014 213.27 15.2025 214.676 15.0993C216.081 14.9962 217.368 14.9447 218.536 14.9447C222.599 14.9447 225.694 15.755 227.823 17.3756C229.952 18.9963 231.016 21.4124 231.016 24.6242C231.016 26.6573 230.508 28.3958 229.493 29.8396C228.477 31.2835 226.981 32.359 225.006 33.0662V33.0662ZM188.444 45.8835V15.2536H205.891V18.9222H192.493V28.1597H204.388V31.784H192.493V45.8835H188.444ZM184.186 42.1707V45.8835H166.781V15.2536H170.83V42.1707H184.186ZM162.525 42.1712V45.884H145.12V15.2541H149.169V42.1712H162.525ZM121.287 45.884V15.2541H138.942V18.9226H125.335V28.0276H137.439V31.6077H125.335V42.2154H139.985V45.884H121.287ZM107.849 46.5469C105.817 46.5469 103.967 46.1933 102.298 45.4861C100.628 44.7788 99.1951 43.7476 97.9986 42.3921C96.8021 41.0368 95.8769 39.3645 95.223 37.3756C94.5691 35.3866 94.2422 33.1105 94.2422 30.5469C94.2422 27.9834 94.6109 25.7071 95.3483 23.7181C96.0856 21.7292 97.0804 20.057 98.3325 18.7015C99.5846 17.3461 101.045 16.3148 102.715 15.6077C104.384 14.9004 106.165 14.5469 108.057 14.5469C109.254 14.5469 110.332 14.6353 111.292 14.8121C112.252 14.9889 113.087 15.1951 113.796 15.4309C114.506 15.6666 115.083 15.9023 115.528 16.1381C115.974 16.3738 116.28 16.5506 116.447 16.6684L115.278 20.2044C115.028 20.0275 114.666 19.836 114.193 19.6298C113.72 19.4235 113.184 19.2173 112.586 19.011C111.988 18.8047 111.334 18.6352 110.624 18.5027C109.915 18.3701 109.198 18.3038 108.475 18.3038C106.944 18.3038 105.567 18.5838 104.343 19.1436C103.118 19.7034 102.075 20.5137 101.212 21.5745C100.35 22.6353 99.689 23.9244 99.2299 25.4419C98.7708 26.9595 98.5412 28.6611 98.5412 30.5469C98.5412 32.3738 98.7429 34.0386 99.1464 35.5414C99.5498 37.0441 100.155 38.3333 100.962 39.4088C101.769 40.4843 102.778 41.3167 103.988 41.906C105.198 42.4954 106.61 42.79 108.224 42.79C110.089 42.79 111.633 42.5837 112.857 42.1712C114.082 41.7587 115 41.3904 115.612 41.0662L116.655 44.6021C116.461 44.7494 116.113 44.9336 115.612 45.1546C115.111 45.3756 114.485 45.5892 113.734 45.7955C112.982 46.0017 112.106 46.1785 111.104 46.3259C110.103 46.4732 109.017 46.5469 107.849 46.5469Z" fill="white"/>
<path fill-rule="evenodd" clip-rule="evenodd" d="M16.8919 5.75409H16.8918C15.2833 5.75409 13.9793 4.46601 13.9793 2.87706C13.9793 2.70947 13.9938 2.54522 14.0216 2.38548C14.2577 1.03072 15.4529 0 16.8918 0H16.8919H16.892C18.5005 0 19.8045 1.28812 19.8045 2.87706C19.8045 3.11913 19.7743 3.35421 19.7173 3.57879C19.4002 4.82854 18.2555 5.75409 16.892 5.75409H16.8919ZM40.7767 4.02772C40.7767 2.43877 42.0809 1.15069 43.6894 1.15069C45.2979 1.15069 46.6019 2.4388 46.6019 4.02772C46.6019 5.61687 45.2979 6.90496 43.6894 6.90496C42.0809 6.90496 40.7767 5.61687 40.7767 4.02772ZM51.6526 5.56204C51.6526 5.51901 51.6537 5.47622 51.6559 5.43372C51.7235 4.11628 52.8263 3.0684 54.177 3.0684C55.571 3.0684 56.7013 4.18493 56.7013 5.56204C56.7013 6.25056 56.4187 6.87395 55.9618 7.32518C55.505 7.77644 54.874 8.05562 54.177 8.05562C52.7827 8.05562 51.6526 6.93909 51.6526 5.56204ZM33.9803 8.82274H33.9802C32.321 8.82274 30.9477 7.61343 30.7143 6.03836C30.6913 5.8829 30.6794 5.72383 30.6794 5.56206C30.6794 3.76121 32.1572 2.30137 33.9802 2.30137H33.9803H33.9804C35.483 2.30137 36.7511 3.29308 37.1505 4.65008C37.2357 4.93948 37.2813 5.24549 37.2813 5.56206C37.2813 7.36287 35.8035 8.82274 33.9805 8.82274H33.9803ZM62.7192 13.4266H62.7191C61.6778 13.4266 60.8105 12.6904 60.6216 11.7162C60.5965 11.5869 60.5834 11.4534 60.5834 11.3168C60.5834 10.1514 61.5396 9.20686 62.7191 9.20686H62.7192H62.7193C63.7514 9.20686 64.6125 9.93006 64.8117 10.8916C64.8401 11.0289 64.8551 11.1711 64.8551 11.3168C64.8551 12.482 63.8989 13.4266 62.7193 13.4266L62.7192 13.4266ZM10.4904 13.8051C8.75621 13.7074 7.38024 12.2873 7.38024 10.5498C7.38024 8.749 8.85832 7.28913 10.6813 7.28913C12.5043 7.28913 13.9822 8.749 13.9822 10.5498C13.9822 12.3506 12.5043 13.8105 10.6813 13.8105C10.6172 13.8105 10.5536 13.8087 10.4904 13.8051V13.8051ZM24.2714 14.1942H24.2713C22.2338 14.1942 20.582 12.5626 20.582 10.5499C20.582 10.3218 20.6032 10.0987 20.6438 9.88234C20.9612 8.1884 22.4646 6.90552 24.2713 6.90552H24.2714H24.2715C26.309 6.90552 27.9608 8.53717 27.9608 10.5499C27.9608 12.5626 26.309 14.1942 24.2715 14.1942L24.2714 14.1942ZM67.1841 19.3727C67.1841 18.4192 67.9667 17.6464 68.9317 17.6464C69.8969 17.6464 70.6793 18.4192 70.6793 19.3727C70.6793 20.3259 69.897 21.0988 68.9317 21.0988C67.9667 21.0988 67.1841 20.3259 67.1841 19.3727ZM31.1138 23.0138C29.3598 22.937 27.9616 21.5079 27.9616 19.7562C27.9616 17.9553 29.4395 16.4955 31.2625 16.4955C33.0855 16.4955 34.5634 17.9553 34.5634 19.7562C34.5634 21.5079 33.1653 22.937 31.4113 23.0138C31.362 23.016 31.3124 23.017 31.2625 23.017C31.2127 23.017 31.1631 23.0159 31.1138 23.0138ZM6.40838 23.4008H6.40829C4.37077 23.4008 2.71903 21.7691 2.71903 19.7564C2.71903 17.7437 4.37077 16.1121 6.40829 16.1121H6.40838H6.40847C8.446 16.1121 10.0977 17.7437 10.0977 19.7564C10.0977 21.7691 8.446 23.4008 6.40847 23.4008H6.40838ZM14.7579 19.3728C14.7579 17.1482 16.5833 15.3448 18.8354 15.3448C21.0874 15.3448 22.913 17.1482 22.913 19.3728C22.913 21.5974 21.0874 23.4008 18.8354 23.4008C16.5833 23.4008 14.7579 21.5974 14.7579 19.3728ZM34.9526 29.7302C34.9526 27.9295 36.4305 26.4696 38.2535 26.4696C40.0765 26.4696 41.5544 27.9295 41.5544 29.7302C41.5544 31.5313 40.0765 32.9912 38.2535 32.9912C36.4305 32.9912 34.9526 31.5313 34.9526 29.7302ZM24.0832 29.8711C24.0814 29.8244 24.0805 29.7774 24.0805 29.7302C24.0805 27.7176 25.7323 26.0859 27.7698 26.0859C29.8073 26.0859 31.459 27.7175 31.459 29.7302C31.459 29.7774 31.4581 29.8244 31.4563 29.8711C31.3814 31.8185 29.7595 33.3748 27.7698 33.3748C25.78 33.3748 24.1582 31.8185 24.0832 29.8711ZM-0.000976562 30.114C-0.000976562 27.8895 1.82466 26.086 4.07667 26.086C6.32867 26.086 8.15431 27.8894 8.15431 30.114C8.15431 32.3386 6.32867 34.142 4.07667 34.142C1.82466 34.142 -0.000976562 32.3386 -0.000976562 30.114ZM11.6515 30.1141C11.6515 27.6779 13.651 25.7027 16.1176 25.7027C18.5839 25.7027 20.5834 27.6779 20.5834 30.1141C20.5834 32.5506 18.5839 34.5258 16.1176 34.5258C13.651 34.5258 11.6515 32.5506 11.6515 30.1141ZM30.3393 42.836C28.9656 42.4415 27.9617 41.1888 27.9617 39.7046V39.7045V39.7043C27.9617 38.0653 29.1859 36.7087 30.7804 36.4782C30.9378 36.4554 31.0988 36.4436 31.2626 36.4436C31.4263 36.4436 31.5873 36.4554 31.7447 36.4782C33.3392 36.7087 34.5634 38.0653 34.5634 39.7043V39.7045V39.7046C34.5634 41.1888 33.5595 42.4415 32.1858 42.836C31.8928 42.9201 31.583 42.9652 31.2626 42.9652C30.9421 42.9652 30.6323 42.9201 30.3393 42.836ZM6.40838 44.1159H6.40829C4.37077 44.1159 2.71903 42.4842 2.71903 40.4715C2.71903 38.4588 4.37077 36.8271 6.40829 36.8271H6.40838H6.40847C8.446 36.8271 10.0977 38.4588 10.0977 40.4715C10.0977 42.4842 8.446 44.1159 6.40847 44.1159H6.40838ZM67.1841 42.7726C67.1841 41.8194 67.9667 41.0465 68.9317 41.0465C69.8969 41.0465 70.6793 41.8194 70.6793 42.7726C70.6793 43.7261 69.897 44.499 68.9317 44.499C67.9667 44.499 67.1841 43.7261 67.1841 42.7726ZM14.7579 40.855C14.7579 38.6304 16.5833 36.827 18.8354 36.827C21.0874 36.827 22.913 38.6304 22.913 40.855C22.913 43.0796 21.0874 44.883 18.8354 44.883C16.5833 44.883 14.7579 43.0796 14.7579 40.855ZM62.7192 52.9387H62.7191C61.6778 52.9387 60.8105 52.2026 60.6216 51.2283C60.5965 51.0989 60.5834 50.9654 60.5834 50.8288C60.5834 49.6636 61.5396 48.7191 62.7191 48.7191H62.7192H62.7193C63.7514 48.7191 64.6125 49.4423 64.8117 50.4036C64.8401 50.541 64.8551 50.6832 64.8551 50.8288C64.8551 51.9942 63.8989 52.9388 62.7193 52.9388L62.7192 52.9387ZM10.4904 53.3171C8.75621 53.2194 7.38024 51.7993 7.38024 50.0618C7.38024 48.2608 8.85832 46.8009 10.6813 46.8009C12.5043 46.8009 13.9822 48.2607 13.9822 50.0618C13.9822 51.8626 12.5043 53.3224 10.6813 53.3224C10.6172 53.3224 10.5536 53.3206 10.4904 53.3171V53.3171ZM24.2714 54.4735H24.2713C22.2338 54.4735 20.582 52.8418 20.582 50.8291C20.582 50.6011 20.6032 50.378 20.6438 50.1616C20.9612 48.4677 22.4646 47.1848 24.2713 47.1848H24.2714H24.2715C26.309 47.1848 27.9608 48.8164 27.9608 50.8291C27.9608 52.8418 26.309 54.4735 24.2715 54.4735H24.2714ZM51.6526 56.1999C51.6526 56.1568 51.6537 56.114 51.6559 56.0715C51.7235 54.7541 52.8263 53.7064 54.177 53.7064C55.571 53.7064 56.7013 54.8228 56.7013 56.1999C56.7013 57.5449 55.6233 58.641 54.2745 58.6916C54.2422 58.6929 54.2096 58.6935 54.177 58.6935C52.7827 58.6935 51.6526 57.5772 51.6526 56.1999V56.1999ZM33.9803 59.8441H33.9802C32.321 59.8441 30.9477 58.6348 30.7143 57.0597C30.6913 56.9042 30.6794 56.7452 30.6794 56.5834C30.6794 54.7826 32.1572 53.3227 33.9802 53.3227H33.9803H33.9804C35.483 53.3227 36.7511 54.3145 37.1505 55.6714C37.2357 55.9609 37.2813 56.2669 37.2813 56.5834C37.2813 58.3842 35.8035 59.8441 33.9805 59.8441L33.9803 59.8441ZM40.7767 58.1177C40.7767 56.5288 42.0809 55.2407 43.6894 55.2407C45.2979 55.2407 46.6019 56.5288 46.6019 58.1177C46.6019 59.7068 45.2979 60.995 43.6894 60.995C42.0809 60.995 40.7767 59.7068 40.7767 58.1177ZM16.8919 61.762H16.8918C15.2833 61.762 13.9793 60.4739 13.9793 58.885C13.9793 58.7174 13.9938 58.5532 14.0216 58.3934C14.2577 57.0387 15.4529 56.0079 16.8918 56.0079H16.8919H16.892C18.5005 56.0079 19.8045 57.296 19.8045 58.885C19.8045 59.127 19.7743 59.3621 19.7173 59.5867C19.4002 60.8365 18.2555 61.762 16.892 61.762H16.8919Z" fill="url(#paint0_linear_2162_26643)"/>
</g>
<defs>
<linearGradient id="paint0_linear_2162_26643" x1="32.4925" y1="92.641" x2="94.3925" y2="27.5107" gradientUnits="userSpaceOnUse">
<stop stop-color="#964BFF"/>
<stop offset="0.37" stop-color="#A695FF"/>
<stop offset="0.65" stop-color="#3CE9FF"/>
<stop offset="0.86" stop-color="#CAFF2C"/>
<stop offset="1" stop-color="#FFFF21"/>
</linearGradient>
<clipPath id="clip0_2162_26643">
<rect width="321" height="64" fill="white"/>
</clipPath>
</defs>
</svg>
