<?xml version="1.0" encoding="UTF-8" standalone="no"?>
<svg
   width="32"
   height="32"
   viewBox="0 0 32 32"
   version="1.1"
   id="svg1"
   sodipodi:docname="cell.svg"
   inkscape:version="1.4.2 (ebf0e940d0, 2025-05-08)"
   xmlns:inkscape="http://www.inkscape.org/namespaces/inkscape"
   xmlns:sodipodi="http://sodipodi.sourceforge.net/DTD/sodipodi-0.dtd"
   xmlns="http://www.w3.org/2000/svg"
   xmlns:svg="http://www.w3.org/2000/svg">
  <defs
     id="defs1">
    <linearGradient
       id="paint0_linear_2162_26643"
       x1="32.4925"
       y1="92.640999"
       x2="94.392502"
       y2="27.5107"
       gradientUnits="userSpaceOnUse"
       gradientTransform="matrix(0.26881615,0,0,0.26881615,6.500262,7.6986875)">
      <stop
         stop-color="#964BFF"
         id="stop2" />
      <stop
         offset="0.37"
         stop-color="#A695FF"
         id="stop3" />
      <stop
         offset="0.65"
         stop-color="#3CE9FF"
         id="stop4" />
      <stop
         offset="0.86"
         stop-color="#CAFF2C"
         id="stop5" />
      <stop
         offset="1"
         stop-color="#FFFF21"
         id="stop6" />
    </linearGradient>
  </defs>
  <sodipodi:namedview
     id="namedview1"
     pagecolor="#ffffff"
     bordercolor="#000000"
     borderopacity="0.25"
     inkscape:showpageshadow="2"
     inkscape:pageopacity="0.0"
     inkscape:pagecheckerboard="0"
     inkscape:deskcolor="#d1d1d1"
     inkscape:zoom="5.7079852"
     inkscape:cx="18.745669"
     inkscape:cy="48.96649"
     inkscape:window-width="1920"
     inkscape:window-height="1011"
     inkscape:window-x="0"
     inkscape:window-y="0"
     inkscape:window-maximized="1"
     inkscape:current-layer="svg1" />
  <circle
     fill="#66f9a1"
     cx="16"
     cy="16"
     r="16"
     id="circle1"
     style="fill:#191919;fill-opacity:1" />
  <path
     fill-rule="evenodd"
     clip-rule="evenodd"
     d="m 11.041078,9.2454795 h -2.7e-5 c -0.432391,0 -0.782927,-0.346257 -0.782927,-0.773392 0,-0.04505 0.0039,-0.0892 0.01137,-0.132144 0.06347,-0.364181 0.384759,-0.641256 0.771559,-0.641256 h 2.7e-5 2.7e-5 c 0.43239,0 0.782927,0.346267 0.782927,0.7734 0,0.06507 -0.0081,0.128266 -0.02344,0.188637 -0.08525,0.335952 -0.392956,0.584755 -0.759486,0.584755 z m 6.42062,-0.464076 c 0,-0.427135 0.35059,-0.773392 0.782981,-0.773392 0.432391,0 0.782927,0.346265 0.782927,0.773392 0,0.427189 -0.350536,0.773448 -0.782927,0.773448 -0.432391,0 -0.782981,-0.346259 -0.782981,-0.773448 z m 2.923617,0.41245 c 0,-0.01157 2.96e-4,-0.02307 8.58e-4,-0.03449 0.01817,-0.354149 0.314622,-0.635836 0.677712,-0.635836 0.37473,0 0.678573,0.300141 0.678573,0.670331 0,0.185085 -0.07597,0.352662 -0.198789,0.47396 -0.122796,0.121306 -0.292419,0.196354 -0.479784,0.196354 -0.37481,0 -0.6786,-0.300141 -0.6786,-0.670314 z m -4.750599,0.8765295 h -2.7e-5 c -0.446019,0 -0.815185,-0.3250825 -0.877926,-0.7484865 -0.0062,-0.04179 -0.0094,-0.08455 -0.0094,-0.128037 0,-0.484098 0.397257,-0.876527 0.887309,-0.876527 h 2.6e-5 2.8e-5 c 0.403922,0 0.744809,0.266588 0.852173,0.631372 0.0229,0.0778 0.03516,0.160056 0.03516,0.245155 0,0.484086 -0.397257,0.8765235 -0.887308,0.8765235 z m 7.72548,1.237592 h -2.6e-5 c -0.279919,0 -0.513063,-0.197903 -0.563842,-0.459785 -0.0068,-0.03476 -0.01027,-0.07064 -0.01027,-0.107364 0,-0.313279 0.257042,-0.567186 0.57411,-0.567186 h 2.7e-5 2.7e-5 c 0.277445,0 0.508923,0.194408 0.562471,0.452886 0.0076,0.03691 0.01167,0.07514 0.01167,0.1143 0,0.313224 -0.257042,0.567148 -0.574137,0.567148 z M 9.320251,11.409722 C 8.854073,11.383462 8.48419,11.001713 8.48419,10.534645 c 0,-0.484084 0.397331,-0.8765215 0.887378,-0.8765215 0.490052,0 0.887336,0.3924375 0.887336,0.8765215 0,0.484084 -0.397284,0.876529 -0.887336,0.876529 -0.01723,0 -0.03433,-4.85e-4 -0.05132,-0.0015 z m 3.704555,0.104597 h -2.6e-5 c -0.547713,0 -0.991744,-0.438601 -0.991744,-0.979648 0,-0.06132 0.0057,-0.121289 0.01662,-0.179451 0.08532,-0.4553585 0.489462,-0.8002175 0.975131,-0.8002175 h 2.7e-5 2.7e-5 c 0.547713,0 0.991744,0.438614 0.991744,0.9796685 0,0.541047 -0.444031,0.979648 -0.991744,0.979648 z m 11.535628,1.392064 c 0,-0.256317 0.210375,-0.464058 0.469783,-0.464058 0.259461,0 0.469783,0.207741 0.469783,0.464058 0,0.256235 -0.210295,0.464003 -0.469783,0.464003 -0.259408,0 -0.469783,-0.207768 -0.469783,-0.464003 z m -9.69628,0.978786 c -0.471503,-0.02065 -0.847362,-0.40481 -0.847362,-0.875695 0,-0.484111 0.397284,-0.876529 0.887336,-0.876529 0.490051,0 0.887335,0.392418 0.887335,0.876529 0,0.470885 -0.375832,0.85505 -0.847336,0.875695 -0.01326,5.91e-4 -0.02659,8.57e-4 -0.04,8.57e-4 -0.01338,0 -0.02672,-2.96e-4 -0.03997,-8.57e-4 z m -6.641215,0.104032 h -2.5e-5 c -0.547718,0 -0.991733,-0.438627 -0.991733,-0.979674 0,-0.541045 0.444015,-0.979646 0.991733,-0.979646 h 2.5e-5 2.4e-5 c 0.547721,0 0.991725,0.438601 0.991725,0.979646 0,0.541047 -0.444004,0.979674 -0.991725,0.979674 z m 2.244486,-1.082791 c 0,-0.598008 0.490696,-1.082792 1.096097,-1.082792 0.605374,0 1.096125,0.484784 1.096125,1.082792 0,0.598008 -0.490751,1.082791 -1.096125,1.082791 -0.605401,0 -1.096097,-0.484783 -1.096097,-1.082791 z m 5.428661,2.784236 c 0,-0.484057 0.397284,-0.876502 0.887335,-0.876502 0.490052,0 0.887335,0.392445 0.887335,0.876502 0,0.484165 -0.397283,0.876608 -0.887335,0.876608 -0.490051,0 -0.887335,-0.392444 -0.887335,-0.876608 z m -2.92187,0.03788 c -4.84e-4,-0.01255 -7.27e-4,-0.02519 -7.27e-4,-0.03788 0,-0.541019 0.444031,-0.979647 0.991744,-0.979647 0.547713,0 0.991717,0.438601 0.991717,0.979647 0,0.01269 -2.43e-4,0.02533 -7.26e-4,0.03788 -0.02014,0.523493 -0.456128,0.941851 -0.990991,0.941851 -0.534891,0 -0.970856,-0.418358 -0.991017,-0.941851 z M 6.5,15.793816 c 0,-0.597983 0.490761,-1.082792 1.096137,-1.082792 0.605374,0 1.096136,0.484783 1.096136,1.082792 0,0.598007 -0.490762,1.08279 -1.096136,1.08279 C 6.990761,16.876606 6.5,16.391823 6.5,15.793816 Z m 3.132374,2.5e-5 c 0,-0.65489 0.537498,-1.185855 1.20056,-1.185855 0.662981,0 1.200479,0.530965 1.200479,1.185855 0,0.654971 -0.537498,1.185937 -1.200479,1.185937 -0.663062,0 -1.20056,-0.530966 -1.20056,-1.185937 z m 5.023583,3.419853 C 14.286684,19.107646 14.016819,18.7709 14.016819,18.371923 v -2.7e-5 -5.4e-5 c 0,-0.44059 0.329085,-0.805266 0.757712,-0.867227 0.04231,-0.0061 0.08559,-0.0093 0.129623,-0.0093 0.04401,0 0.08728,0.0032 0.129597,0.0093 0.428627,0.06196 0.757712,0.426637 0.757712,0.867227 v 5.4e-5 2.7e-5 c 0,0.398977 -0.269865,0.735723 -0.639138,0.841771 -0.07876,0.02261 -0.162042,0.03473 -0.248171,0.03473 -0.08616,0 -0.169434,-0.01212 -0.248197,-0.03473 z m -6.433018,0.344061 h -2.5e-5 c -0.547718,0 -0.991733,-0.438626 -0.991733,-0.979673 0,-0.541046 0.444015,-0.979674 0.991733,-0.979674 h 2.5e-5 2.4e-5 c 0.547721,0 0.991725,0.438628 0.991725,0.979674 0,0.541047 -0.444004,0.979673 -0.991725,0.979673 z m 16.337495,-0.361102 c 0,-0.256235 0.210375,-0.464003 0.469783,-0.464003 0.259461,0 0.469783,0.207768 0.469783,0.464003 0,0.256317 -0.210295,0.464085 -0.469783,0.464085 -0.259408,0 -0.469783,-0.207768 -0.469783,-0.464085 z m -14.093009,-0.51548 c 0,-0.598009 0.490696,-1.082791 1.096097,-1.082791 0.605374,0 1.096125,0.484782 1.096125,1.082791 0,0.598008 -0.490751,1.082792 -1.096125,1.082792 -0.605401,0 -1.096097,-0.484784 -1.096097,-1.082792 z m 12.892771,3.248294 h -2.6e-5 c -0.279919,0 -0.513063,-0.197876 -0.563842,-0.459783 -0.0068,-0.03478 -0.01027,-0.07067 -0.01027,-0.107393 0,-0.313224 0.257042,-0.567121 0.57411,-0.567121 h 2.7e-5 2.7e-5 c 0.277445,0 0.508923,0.194408 0.562471,0.452821 0.0076,0.03693 0.01167,0.07516 0.01167,0.1143 0,0.313279 -0.257042,0.567203 -0.574137,0.567203 z M 9.320251,22.031186 C 8.854073,22.004926 8.48419,21.623177 8.48419,21.156109 c 0,-0.484138 0.397331,-0.876583 0.887378,-0.876583 0.490052,0 0.887336,0.392418 0.887336,0.876583 0,0.484084 -0.397284,0.876502 -0.887336,0.876502 -0.01723,0 -0.03433,-4.84e-4 -0.05132,-0.0015 z m 3.704555,0.310859 h -2.6e-5 c -0.547713,0 -0.991744,-0.438628 -0.991744,-0.979673 0,-0.06129 0.0057,-0.121263 0.01662,-0.179436 0.08532,-0.455347 0.489462,-0.800211 0.975131,-0.800211 h 2.7e-5 2.7e-5 c 0.547713,0 0.991744,0.438601 0.991744,0.979646 0,0.541046 -0.444031,0.979674 -0.991744,0.979674 z m 7.360509,0.464084 c 0,-0.01158 2.96e-4,-0.02309 8.58e-4,-0.03452 0.01817,-0.354137 0.314622,-0.635776 0.677712,-0.635776 0.37473,0 0.678573,0.300106 0.678573,0.670294 0,0.361557 -0.289784,0.656206 -0.652363,0.669809 -0.0087,3.49e-4 -0.01745,5.09e-4 -0.02621,5.09e-4 -0.374811,0 -0.6786,-0.300079 -0.6786,-0.670318 z m -4.750599,0.979621 h -2.7e-5 c -0.446019,0 -0.815185,-0.325079 -0.877926,-0.748492 -0.0062,-0.0418 -0.0094,-0.08454 -0.0094,-0.128037 0,-0.484085 0.397257,-0.876529 0.887309,-0.876529 h 2.6e-5 2.8e-5 c 0.403922,0 0.744809,0.266611 0.852173,0.631368 0.0229,0.07782 0.03516,0.16008 0.03516,0.245161 0,0.484083 -0.397257,0.876528 -0.887308,0.876528 z m 1.826982,-0.464084 c 0,-0.427123 0.35059,-0.773384 0.782981,-0.773384 0.432391,0 0.782927,0.346261 0.782927,0.773384 0,0.427174 -0.350536,0.773465 -0.782927,0.773465 -0.432391,0 -0.782981,-0.34629 -0.782981,-0.773465 z m -6.42062,0.979647 h -2.7e-5 c -0.432391,0 -0.782927,-0.346262 -0.782927,-0.773384 0,-0.04505 0.0039,-0.08919 0.01137,-0.13215 0.06347,-0.364166 0.384757,-0.641261 0.771556,-0.641261 h 2.8e-5 2.6e-5 c 0.432391,0 0.782927,0.346262 0.782927,0.773411 0,0.06506 -0.0081,0.128252 -0.02344,0.188627 -0.08525,0.335967 -0.392957,0.584757 -0.759487,0.584757 z"
     fill="url(#paint0_linear_2162_26643)"
     id="path2"
     style="fill:url(#paint0_linear_2162_26643);stroke-width:0.268816" />
</svg>
